<svg width="62" height="47" viewBox="0 0 62 47" fill="none" xmlns="http://www.w3.org/2000/svg">
<path d="M19.2834 27.5246C19.2642 27.5628 19.2642 27.6011 19.2834 27.6394L19.3025 27.6873L21.3886 28.2327C20.4412 27.3427 19.6757 26.6346 19.6661 26.625L19.2834 27.5246Z" fill="#F6DC5C"/>
<path d="M30.9623 33.4708C30.7703 33.725 30.7175 34.0586 30.8217 34.3595C30.9259 34.6614 31.1731 34.8912 31.4814 34.9726L40.047 37.2396C40.1292 37.2611 40.2115 37.2714 40.2923 37.2714C40.7161 37.2714 41.1034 36.9882 41.217 36.5593C41.352 36.0481 41.0474 35.5248 40.5367 35.3893L33.3486 33.4867L34.6066 31.8198L41.9155 34.0997C42.0104 34.1287 42.1066 34.1427 42.201 34.1427C42.6084 34.1427 42.9864 33.8801 43.114 33.4708C43.2715 32.9662 42.9902 32.4298 42.4855 32.2719L35.8319 30.1964L36.9356 28.7339L44.2938 30.9944C44.7998 31.1505 45.3343 30.8655 45.4895 30.3608C45.6446 29.8553 45.361 29.3198 44.8554 29.1647L36.8566 26.7079C36.4739 26.593 36.0544 26.7247 35.8119 27.0462L33.94 29.5261L30.9853 28.7498C30.9949 29.0656 30.9566 29.3909 30.8705 29.7067C30.7939 30.013 30.6791 30.3193 30.5069 30.6063L32.6904 31.1816L30.9623 33.4708Z" fill="#F6DC5C"/>
<path d="M20.9711 9.58401C23.6201 9.58401 25.7569 7.43481 25.7569 4.78576C25.7569 2.14921 23.6201 0 20.9711 0C18.322 0 16.1854 2.14921 16.1854 4.78576C16.1854 7.4348 18.322 9.58401 20.9711 9.58401Z" fill="#18244F"/>
<path d="M60.2859 45.0858H59.8345C59.4235 43.6182 58.1084 42.5299 56.5165 42.4905C55.7891 41.0591 54.2006 40.3321 52.7176 40.6149C52.22 39.2943 51.0717 38.3086 49.665 38.0312C49.445 36.8637 49.1004 34.1652 49.8468 31.2275C49.8755 31.2275 49.8947 31.2275 49.9234 31.2179C55.9223 31.2179 59.3879 25.1173 57.5788 19.5436C57.5118 19.3139 57.349 19.1416 57.1481 19.0268C57.0142 18.9502 56.8706 18.8928 56.7079 18.8832C56.6505 18.8832 56.373 18.8737 55.9424 18.8928C49.1972 19.2025 44.751 23.8683 48.0478 30.4619V30.4715C47.177 33.6581 47.4641 36.615 47.732 38.1173C46.4785 38.4905 45.4737 39.4474 45.0239 40.6913C43.3804 40.2298 41.6772 40.9981 40.9188 42.4905C39.3266 42.5222 38.0049 43.6158 37.5918 45.0858H18.3345C18.4735 44.8797 18.5854 44.6507 18.6484 44.3946L20.2369 37.1602C20.4283 36.366 20.3709 35.524 20.0647 34.768L17.5001 28.3471C17.2992 27.8399 17.3088 27.2753 17.5192 26.7778L17.7298 26.2802L20.0838 20.7588L20.5527 24.376C20.6005 24.7203 20.7632 25.0362 21.012 25.2658L23.7966 27.8686L26.1889 30.0983C26.5143 30.3949 26.9258 30.5385 27.3372 30.5385C27.8827 30.5385 28.4281 30.2801 28.7726 29.7824C28.8874 29.6103 28.9736 29.4188 29.0214 29.2275C29.1745 28.6342 29.0023 27.993 28.5334 27.5433L24.8684 24.0409C24.1794 23.3807 23.7296 22.5099 23.5957 21.5625L22.7823 15.6679C22.6292 14.6057 21.9402 13.7062 20.945 13.2948L15.0217 10.8164C14.237 10.4911 13.3471 10.5102 12.572 10.8737L5.68215 14.1081C4.85921 14.4909 4.2372 15.1894 3.94055 16.0411L2.28512 20.7683C2.20855 20.9884 2.17029 21.2085 2.17029 21.4286C2.17029 22.2611 2.68701 23.0265 3.50042 23.3232C4.16069 23.5529 4.84964 23.4286 5.36636 23.0457C5.7109 22.8065 5.96922 22.4621 6.10321 22.0314L7.25152 18.3473C7.4046 17.8784 7.74913 17.4956 8.19886 17.285L10.9548 16.0315L8.39983 23.84L7.76824 25.7538C7.71082 25.926 7.67256 26.1079 7.66298 26.2898L7.27068 34.0886C7.20368 35.323 6.72522 36.5096 5.91181 37.4378L2.54351 42.2128C2.16072 42.6434 1.96932 43.1889 1.96932 43.7344C1.96932 44.2111 2.12491 44.6846 2.41951 45.0858H0.956918C0.42846 45.0858 0 45.5138 0 46.0427C0 46.5716 0.42846 46.9996 0.956918 46.9996H60.2859C60.8143 46.9996 61.2428 46.5716 61.2428 46.0427C61.2428 45.5138 60.8143 45.0858 60.2859 45.0858ZM15.5002 38.9211L14.4763 43.2751C14.4188 43.476 14.3902 43.6769 14.3902 43.8778C14.3902 44.3165 14.5297 44.7337 14.7682 45.0858H6.14305C6.15129 45.0743 6.16215 45.0664 6.17021 45.0548L10.9165 37.4857C11.3184 36.921 11.5959 36.28 11.7395 35.6006L12.8399 30.4522L15.1748 35.2178C15.7394 36.366 15.8542 37.6866 15.5002 38.9211ZM52.7176 23.2181C53.1195 22.8832 53.7223 22.9406 54.0668 23.3425C54.4018 23.7539 54.3444 24.3568 53.9424 24.6917C52.2966 26.0601 51.2344 27.6391 50.5358 29.2275C50.1626 29.2849 49.8373 29.3041 49.5885 29.3137C49.3301 28.8065 49.1482 28.3376 49.0334 27.8879C49.8277 26.2612 51.0047 24.6535 52.7176 23.2181Z" fill="#18244F"/>
</svg>
