<svg width="21" height="16" viewBox="0 0 21 16" fill="none" xmlns="http://www.w3.org/2000/svg">
<path d="M6.33284 9.03957C6.32655 9.05212 6.32655 9.0647 6.33284 9.07728L6.33914 9.09301L7.02424 9.27213C6.7131 8.97984 6.46169 8.74729 6.45854 8.74414L6.33284 9.03957Z" fill="#18244F"/>
<path d="M10.1691 10.9923C10.106 11.0758 10.0887 11.1854 10.1229 11.2842C10.1572 11.3833 10.2383 11.4588 10.3396 11.4855L13.1527 12.2301C13.1797 12.2371 13.2067 12.2405 13.2333 12.2405C13.3724 12.2405 13.4997 12.1475 13.5369 12.0066C13.5813 11.8388 13.4812 11.6669 13.3135 11.6224L10.9528 10.9975L11.366 10.4501L13.7664 11.1989C13.7975 11.2084 13.8291 11.213 13.8601 11.213C13.9939 11.213 14.1181 11.1268 14.16 10.9923C14.2117 10.8266 14.1193 10.6504 13.9536 10.5986L11.7684 9.91693L12.1309 9.43662L14.5474 10.179C14.7136 10.2303 14.8892 10.1367 14.9401 9.97094C14.9911 9.80491 14.8979 9.62905 14.7319 9.5781L12.1049 8.77125C11.9792 8.7335 11.8414 8.77678 11.7618 8.88235L11.147 9.6968L10.1767 9.44184C10.1798 9.54557 10.1672 9.65241 10.139 9.75611C10.1138 9.8567 10.0761 9.95729 10.0195 10.0515L10.7367 10.2405L10.1691 10.9923Z" fill="#18244F"/>
<path d="M6.88813 3.14758C7.75813 3.14758 8.45988 2.44174 8.45988 1.57174C8.45988 0.705843 7.75813 0 6.88813 0C6.01813 0 5.31641 0.705843 5.31641 1.57174C5.31641 2.44173 6.01813 3.14758 6.88813 3.14758Z" fill="#18244F"/>
<path d="M19.7991 14.807H19.6508C19.5159 14.325 19.084 13.9676 18.5611 13.9546C18.3222 13.4845 17.8005 13.2458 17.3135 13.3387C17.1501 12.9049 16.7729 12.5812 16.311 12.4901C16.2387 12.1067 16.1255 11.2205 16.3707 10.2557C16.3801 10.2557 16.3864 10.2557 16.3958 10.2525C18.366 10.2525 19.5042 8.24896 18.91 6.41843C18.888 6.34301 18.8346 6.28642 18.7686 6.24871C18.7246 6.22354 18.6774 6.20471 18.624 6.20156C18.6052 6.20156 18.514 6.19842 18.3726 6.20471C16.1573 6.30641 14.6971 7.83875 15.7799 10.0042V10.0074C15.4939 11.0539 15.5882 12.025 15.6761 12.5184C15.2644 12.641 14.9345 12.9552 14.7867 13.3638C14.247 13.2122 13.6876 13.4645 13.4385 13.9546C12.9156 13.9651 12.4816 14.3242 12.3459 14.807H6.02142C6.06707 14.7393 6.10383 14.6641 6.1245 14.58L6.6462 12.2041C6.70906 11.9433 6.6902 11.6667 6.58964 11.4184L5.74739 9.30967C5.68139 9.1431 5.68454 8.95769 5.75367 8.7943L5.82281 8.63087L6.59591 6.81752L6.74992 8.00548C6.76563 8.11857 6.81905 8.2223 6.90076 8.29773L7.81528 9.15253L8.60096 9.88481C8.70782 9.98222 8.84295 10.0294 8.97809 10.0294C9.15722 10.0294 9.33636 9.9445 9.44949 9.78108C9.48721 9.72453 9.5155 9.66165 9.53121 9.59881C9.58148 9.40396 9.52491 9.19339 9.37092 9.04569L8.16726 7.89545C7.941 7.67862 7.79328 7.39262 7.74929 7.0815L7.48215 5.14558C7.43188 4.79674 7.20559 4.50131 6.87876 4.36619L4.93342 3.55224C4.67571 3.4454 4.38344 3.45169 4.12889 3.57108L1.86613 4.63332C1.59586 4.75903 1.39158 4.98844 1.29416 5.26815L0.750479 6.82067C0.725331 6.89294 0.712767 6.96522 0.712767 7.03749C0.712767 7.31091 0.882466 7.5623 1.14961 7.65974C1.36645 7.73517 1.59272 7.69435 1.76242 7.56859C1.87557 7.49003 1.96041 7.37693 2.00441 7.23548L2.38154 6.02555C2.43182 5.87156 2.54497 5.74584 2.69267 5.67667L3.59777 5.265L2.75867 7.82946L2.55124 8.458C2.53239 8.51455 2.51982 8.57428 2.51668 8.63401L2.38783 11.1953C2.36583 11.6007 2.2087 11.9904 1.94156 12.2952L0.835338 13.8635C0.709624 14.0049 0.646763 14.184 0.646763 14.3632C0.646763 14.5197 0.697864 14.6753 0.794615 14.807H0.314271C0.140715 14.807 0 14.9476 0 15.1213C0 15.295 0.140715 15.4355 0.314271 15.4355H19.7991C19.9726 15.4355 20.1133 15.295 20.1133 15.1213C20.1133 14.9476 19.9726 14.807 19.7991 14.807ZM5.09056 12.7824L4.75429 14.2123C4.73543 14.2783 4.72601 14.3443 4.72601 14.4103C4.72601 14.5543 4.77186 14.6914 4.85016 14.807H2.0175C2.02021 14.8032 2.02377 14.8006 2.02642 14.7968L3.58521 12.311C3.7172 12.1255 3.80833 11.915 3.85548 11.6919L4.21688 10.001L4.9837 11.5661C5.16913 11.9433 5.20684 12.377 5.09056 12.7824ZM17.3135 7.62522C17.4455 7.51523 17.6435 7.53406 17.7566 7.66607C17.8666 7.80119 17.8478 7.99918 17.7158 8.10916C17.1752 8.55859 16.8264 9.07714 16.597 9.5988C16.4744 9.61768 16.3675 9.62397 16.2858 9.62712C16.201 9.46055 16.1413 9.30656 16.1035 9.15886C16.3644 8.62462 16.7509 8.09662 17.3135 7.62522Z" fill="#18244F"/>
</svg>
