<svg width="16" height="15" viewBox="0 0 16 15" fill="none" xmlns="http://www.w3.org/2000/svg">
<path d="M6.79789 0.428711C6.52393 0.595468 6.32144 0.845605 6.22615 1.1553C6.19042 1.2625 6.15468 1.38161 6.13086 1.50072H6.79789V0.428711Z" fill="#18244F"/>
<path d="M2.20024 13.4245C2.16451 13.3411 2.10495 13.2577 2.04539 13.1862C2.00966 13.1386 1.96202 13.1029 1.91437 13.0671C1.90246 13.0552 1.90246 13.0552 1.89055 13.0433C1.72379 12.9123 1.50939 12.8289 1.27116 12.7932C1.1997 12.7812 1.12823 12.7812 1.05676 12.7812C1.02103 12.7812 0.997204 12.7812 0.96147 12.7812C0.592221 12.8051 0.270618 12.9837 0.115771 13.2339C0.10386 13.2577 0.0919487 13.2696 0.0800375 13.2934C0.0800375 13.3053 0.0800375 13.3053 0.0681262 13.3173C0.056215 13.3292 0.0562149 13.3411 0.0443037 13.3649C0.0443037 13.3768 0.0323924 13.3887 0.0323924 13.4006C0.0323924 13.4125 0.0204812 13.4245 0.0204812 13.4364C0.0204812 13.4483 0.00856993 13.4721 0.00856993 13.484V13.4959C-0.0390751 13.7818 0.115771 14.0677 0.377819 14.2582C0.270617 13.9366 0.29444 13.5555 0.556488 13.2815C0.711334 13.1386 0.925736 13.0671 1.12823 13.1029C1.31881 13.1267 1.47365 13.2339 1.55703 13.3887C1.64041 13.5436 1.64041 13.7103 1.54512 13.8414C1.46174 13.9605 1.33072 14.02 1.17587 13.9962C1.04485 13.9843 0.949559 13.8533 0.96147 13.7222C0.973382 13.6627 0.997204 13.615 1.03294 13.5793C0.985293 13.5793 0.925736 13.5912 0.890003 13.6269C0.735156 13.7818 0.77089 14.0558 0.890003 14.2582C1.08058 14.4846 1.35454 14.556 1.60468 14.4726C1.6285 14.4607 1.64041 14.4607 1.66423 14.4607C1.97393 14.3416 2.20024 14.1153 2.24789 13.8294C2.27171 13.6865 2.2598 13.5555 2.20024 13.4245Z" fill="#18244F"/>
<path d="M9.48895 6.40845C8.85765 6.00347 8.19062 5.78906 7.49977 5.78906C6.80891 5.78906 6.12997 5.99155 5.51059 6.40845C5.28427 6.55138 5.06987 6.73005 4.85547 6.92063H10.156C9.94157 6.73005 9.71526 6.55138 9.48895 6.40845Z" fill="#18244F"/>
<path d="M0.235145 12.4713C0.354258 12.4117 0.47337 12.3641 0.604394 12.3402C0.616305 12.3402 0.616305 12.3402 0.628216 12.3402C0.66395 12.3283 0.699684 12.3283 0.723506 12.3164C0.735418 12.3164 0.747329 12.3164 0.75924 12.3164C0.794974 12.3164 0.818796 12.3045 0.85453 12.3045C0.866441 12.3045 0.878353 12.3045 0.890264 12.3045C0.937909 12.3045 0.973643 12.3045 1.02129 12.3045C1.11658 12.3045 1.21187 12.3164 1.31907 12.3283C1.73596 12.3879 2.11712 12.5785 2.37917 12.8643C2.37917 12.8643 2.37917 12.8643 2.39108 12.8762L2.45064 12.507L3.41545 7.59956C3.42736 7.49236 3.41545 7.38516 3.3678 7.26605C3.23678 6.92062 2.85562 6.65857 2.4149 6.58711C2.34344 6.5752 2.27197 6.5752 2.2005 6.5752C1.6645 6.5752 1.22378 6.87298 1.16422 7.27796L0.1875 12.5189C0.199411 12.4951 0.223234 12.4832 0.235145 12.4713Z" fill="#18244F"/>
<path d="M7.29921 0.142935C7.2873 0.166758 7.27539 0.202491 7.27539 0.238225V1.50082H7.71611V0.226314C7.71611 0.19058 7.7042 0.166758 7.69228 0.131024C7.65655 0.047645 7.57317 0 7.48979 0C7.41833 0.0119113 7.33495 0.0595563 7.29921 0.142935Z" fill="#18244F"/>
<path d="M6.10761 2.97754C6.0957 3.0371 6.0957 3.10856 6.0957 3.16812C6.0957 3.97808 6.727 4.6332 7.50123 4.6332C8.27546 4.6332 8.90676 3.97808 8.90676 3.16812C8.90676 3.10856 8.90676 3.0371 8.89485 2.97754H6.10761Z" fill="#18244F"/>
<path d="M5.9052 2.48953H9.09742C9.24035 2.48953 9.34756 2.37042 9.34756 2.23939C9.34756 2.12028 9.26418 2.01308 9.13315 1.98926C9.12124 1.98926 9.10933 1.98926 9.08551 1.98926H8.00158C7.98967 1.98926 7.96585 2.00117 7.94203 2.00117H7.01295C6.98913 2.00117 6.97722 2.00117 6.95339 1.98926H5.86947C5.85756 1.98926 5.84565 1.98926 5.82182 1.98926C5.70271 2.01308 5.60742 2.12028 5.60742 2.23939C5.65507 2.38233 5.76227 2.48953 5.9052 2.48953Z" fill="#18244F"/>
<path d="M8.20312 1.50072H8.87016C8.84633 1.38161 8.8106 1.2625 8.77486 1.1553C8.67957 0.845605 8.46517 0.595468 8.20312 0.428711V1.50072Z" fill="#18244F"/>
<path d="M12.539 12.483L12.5986 12.8641C12.5986 12.8641 12.5986 12.8522 12.6105 12.8522C12.8011 12.6378 13.0631 12.483 13.349 12.3877C13.3966 12.3758 13.4324 12.3639 13.48 12.3519C13.4919 12.3519 13.4919 12.3519 13.5038 12.34C13.5515 12.3281 13.611 12.3162 13.6587 12.3043C13.754 12.2924 13.8493 12.2805 13.9565 12.2805C14.0041 12.2805 14.0518 12.2805 14.0875 12.2805C14.0994 12.2805 14.1113 12.2805 14.1232 12.2805C14.159 12.2805 14.1828 12.2924 14.2185 12.2924C14.2304 12.2924 14.2423 12.2924 14.2543 12.2924C14.29 12.2924 14.3257 12.3043 14.3615 12.3162C14.3734 12.3162 14.3734 12.3162 14.3853 12.3162C14.5163 12.3519 14.6354 12.3877 14.7545 12.4472C14.7664 12.4591 14.7903 12.4591 14.8022 12.4711L13.8254 7.24202C13.7659 6.82513 13.3252 6.52734 12.7892 6.52734C12.7177 6.52734 12.6462 6.52734 12.5748 6.53925C12.1221 6.61072 11.7529 6.87277 11.6219 7.2182C11.5742 7.33731 11.5623 7.44451 11.5861 7.56362L12.539 12.483Z" fill="#18244F"/>
<path d="M14.9934 13.4715C14.9934 13.4477 14.9815 13.4358 14.9815 13.412C14.9815 13.4 14.9696 13.3881 14.9696 13.3762C14.9696 13.3643 14.9577 13.3524 14.9577 13.3405C14.9577 13.3286 14.9458 13.3167 14.9339 13.2928C14.9339 13.2809 14.9339 13.2809 14.9219 13.269C14.91 13.2452 14.8981 13.2333 14.8862 13.2095C14.7314 12.9593 14.4098 12.7926 14.0405 12.7568C14.0048 12.7568 13.981 12.7568 13.9452 12.7568C13.8738 12.7568 13.8023 12.7568 13.7308 12.7687C13.6951 12.7687 13.6594 12.7807 13.6236 12.7926C13.6117 12.7926 13.5879 12.8045 13.576 12.8045C13.5522 12.8045 13.5402 12.8164 13.5164 12.8164C13.5045 12.8164 13.4807 12.8283 13.4688 12.8402C13.445 12.8521 13.433 12.8521 13.4211 12.864C13.4092 12.864 13.3973 12.8759 13.3735 12.8879C13.3497 12.8998 13.3378 12.8998 13.3139 12.9117C13.302 12.9117 13.2901 12.9236 13.2782 12.9236C13.2544 12.9355 13.2305 12.9474 13.2186 12.9593C13.2067 12.9593 13.2067 12.9712 13.1948 12.9712C13.171 12.9832 13.1472 13.007 13.1233 13.0189C13.0638 13.0665 13.0161 13.1023 12.9685 13.1618C12.9089 13.2333 12.8494 13.3048 12.8137 13.3881C12.8137 13.3881 12.8137 13.3881 12.8137 13.4C12.8017 13.4239 12.7898 13.4477 12.7898 13.4715C12.7898 13.4834 12.7898 13.4834 12.7779 13.4953C12.766 13.5192 12.766 13.5311 12.766 13.5549C12.766 13.5668 12.766 13.5787 12.7541 13.5787C12.7541 13.5906 12.7422 13.6144 12.7422 13.6264C12.7422 13.6383 12.7422 13.6502 12.7422 13.6621C12.7422 13.674 12.7422 13.6859 12.7422 13.7097C12.7422 13.7216 12.7422 13.7336 12.7422 13.7574C12.7422 13.7693 12.7422 13.7931 12.7422 13.805C12.7422 13.805 12.7422 13.805 12.7422 13.8169C12.7779 14.079 12.9804 14.2934 13.2544 14.4125C13.2901 14.4006 13.3378 14.4125 13.3854 14.4244C13.6236 14.5197 13.8976 14.4363 14.1001 14.21C14.2192 14.0194 14.2549 13.7336 14.1001 13.5787C14.0762 13.5549 14.0167 13.5311 13.9571 13.543C13.9929 13.5787 14.0286 13.6264 14.0286 13.6859C14.0405 13.8169 13.9452 13.9361 13.8142 13.9599C13.6713 13.9837 13.5283 13.9241 13.445 13.805C13.3616 13.674 13.3497 13.5072 13.433 13.3643C13.5283 13.1976 13.6832 13.0904 13.8738 13.0665C14.0762 13.0427 14.2907 13.1023 14.4336 13.2452C14.7195 13.543 14.7314 13.9361 14.6123 14.2696C14.8862 14.0552 15.0411 13.7693 14.9934 13.4715Z" fill="#18244F"/>
<path d="M11.0977 7.73059C11.0977 7.71868 11.0977 7.70677 11.0977 7.69486C11.0381 7.59957 10.9786 7.50428 10.9071 7.4209H10.7165H4.28443H4.09385C4.02239 7.51619 3.96283 7.59957 3.90327 7.69486C3.90327 7.70677 3.90327 7.71868 3.90327 7.73059V7.7425L2.87891 13.043H12.122L11.0977 7.7425C11.0977 7.7425 11.0977 7.7425 11.0977 7.73059ZM7.50047 9.61257H9.50156C9.63259 9.61257 9.73979 9.71977 9.73979 9.85079C9.73979 9.98182 9.63259 10.089 9.50156 10.089H7.50047C7.36945 10.089 7.26225 9.98182 7.26225 9.85079C7.26225 9.71977 7.36945 9.61257 7.50047 9.61257ZM5.49938 11.161L5.89245 9.77933C5.92819 9.6483 6.07112 9.57684 6.19023 9.61257C6.32126 9.6483 6.39273 9.77933 6.35699 9.91035L5.97583 11.304C5.9401 11.4112 5.84481 11.4826 5.73761 11.4826C5.71378 11.4826 5.68996 11.4826 5.66614 11.4707C5.53512 11.435 5.46365 11.2921 5.49938 11.161ZM10.3473 12.5666H4.02239C3.95092 12.5666 3.87945 12.5308 3.83181 12.4713C3.78416 12.4117 3.77225 12.3402 3.78416 12.2688L4.66559 8.09984C4.68942 7.96882 4.82044 7.88544 4.95146 7.90926C5.08249 7.93308 5.16587 8.06411 5.14204 8.19513L4.32017 12.0663H10.3354C10.4664 12.0663 10.5736 12.1735 10.5736 12.3045C10.5736 12.4355 10.4783 12.5666 10.3473 12.5666ZM10.7642 11.6613C10.7522 11.6613 10.7284 11.6613 10.7165 11.6613C10.6093 11.6613 10.5021 11.5779 10.4783 11.4707L9.81125 8.27851H8.28661C8.15559 8.27851 8.04839 8.17131 8.04839 8.04028C8.04839 7.90926 8.15559 7.80206 8.28661 7.80206H10.0018C10.1209 7.80206 10.2162 7.88544 10.2401 7.99264L10.9547 11.3873C10.9786 11.5065 10.8952 11.6375 10.7642 11.6613Z" fill="#18244F"/>
</svg>
