<svg width="49" height="48" viewBox="0 0 49 48" fill="none" xmlns="http://www.w3.org/2000/svg">
<path d="M22.1735 1.39844C21.2799 1.94237 20.6194 2.75827 20.3086 3.76843C20.192 4.1181 20.0754 4.50662 19.9977 4.89514H22.1735V1.39844Z" fill="#18244F"/>
<path d="M7.17677 43.7875C7.06022 43.5155 6.86596 43.2435 6.6717 43.0104C6.55514 42.855 6.39973 42.7385 6.24432 42.6219C6.20547 42.5831 6.20547 42.5831 6.16662 42.5442C5.62268 42.1168 4.92334 41.8449 4.1463 41.7283C3.91318 41.6895 3.68007 41.6895 3.44695 41.6895C3.3304 41.6895 3.25269 41.6895 3.13614 41.6895C1.93172 41.7672 0.882704 42.3499 0.377624 43.1658C0.338772 43.2435 0.29992 43.2824 0.261067 43.3601C0.261067 43.399 0.261067 43.399 0.222215 43.4378C0.183363 43.4767 0.183363 43.5155 0.14451 43.5932C0.14451 43.6321 0.105658 43.6709 0.105658 43.7098C0.105658 43.7486 0.0668058 43.7875 0.0668058 43.8263C0.0668058 43.8652 0.0279535 43.9429 0.0279535 43.9817V44.0206C-0.127456 44.953 0.377624 45.8855 1.23237 46.5071C0.882704 45.4581 0.960408 44.2149 1.81516 43.3212C2.32024 42.855 3.01958 42.6219 3.68007 42.7385C4.30171 42.8162 4.80679 43.1658 5.07875 43.6709C5.35072 44.176 5.35072 44.7199 5.0399 45.1473C4.76793 45.5358 4.34056 45.7301 3.83548 45.6524C3.4081 45.6135 3.09728 45.1862 3.13614 44.7588C3.17499 44.5645 3.25269 44.4091 3.36925 44.2926C3.21384 44.2926 3.01958 44.3314 2.90302 44.448C2.39794 44.953 2.5145 45.8466 2.90302 46.5071C3.52466 47.2453 4.41826 47.4784 5.23416 47.2065C5.31186 47.1676 5.35072 47.1676 5.42842 47.1676C6.43858 46.7791 7.17677 46.0409 7.33218 45.1085C7.40989 44.6422 7.37104 44.2149 7.17677 43.7875Z" fill="#18244F"/>
<path d="M30.9543 20.9022C28.8952 19.5812 26.7194 18.8818 24.466 18.8818C22.2126 18.8818 19.998 19.5423 17.9777 20.9022C17.2395 21.3684 16.5401 21.9512 15.8408 22.5728H33.1301C32.4307 21.9512 31.6925 21.3684 30.9543 20.9022Z" fill="#18244F"/>
<path d="M0.765837 40.6782C1.15436 40.4839 1.54288 40.3285 1.97026 40.2508C2.00911 40.2508 2.00911 40.2508 2.04796 40.2508C2.16452 40.2119 2.28108 40.2119 2.35878 40.1731C2.39763 40.1731 2.43649 40.1731 2.47534 40.1731C2.59189 40.1731 2.6696 40.1342 2.78616 40.1342C2.82501 40.1342 2.86386 40.1342 2.90271 40.1342C3.05812 40.1342 3.17468 40.1342 3.33009 40.1342C3.64091 40.1342 3.95172 40.1731 4.30139 40.2119C5.66123 40.4062 6.9045 41.0278 7.75925 41.9603C7.75925 41.9603 7.75925 41.9603 7.7981 41.9991L7.99236 40.7947L11.1394 24.7876C11.1783 24.4379 11.1394 24.0882 10.984 23.6997C10.5566 22.573 9.31334 21.7183 7.8758 21.4851C7.64269 21.4463 7.40958 21.4463 7.17646 21.4463C5.42811 21.4463 3.99058 22.4176 3.79632 23.7386L0.610428 40.8336C0.64928 40.7559 0.726985 40.717 0.765837 40.6782Z" fill="#18244F"/>
<path d="M23.8055 0.466228C23.7666 0.543932 23.7278 0.660489 23.7278 0.777046V4.89539H25.1653V0.738194C25.1653 0.621637 25.1265 0.543932 25.0876 0.427375C24.971 0.155409 24.6991 0 24.4271 0C24.194 0.0388523 23.922 0.194262 23.8055 0.466228Z" fill="#18244F"/>
<path d="M19.9203 9.71387C19.8814 9.90813 19.8814 10.1412 19.8814 10.3355C19.8814 12.9775 21.9406 15.1143 24.466 15.1143C26.9914 15.1143 29.0506 12.9775 29.0506 10.3355C29.0506 10.1412 29.0506 9.90813 29.0117 9.71387H19.9203Z" fill="#18244F"/>
<path d="M19.2598 8.1191H29.6722C30.1384 8.1191 30.4881 7.73058 30.4881 7.3032C30.4881 6.91468 30.2161 6.56501 29.7888 6.4873C29.7499 6.4873 29.7111 6.4873 29.6334 6.4873H26.0978C26.0589 6.4873 25.9812 6.52616 25.9035 6.52616H22.8731C22.7953 6.52616 22.7565 6.52616 22.6788 6.4873H19.1432C19.1044 6.4873 19.0655 6.4873 18.9878 6.4873C18.5993 6.56501 18.2885 6.91468 18.2885 7.3032C18.4439 7.76943 18.7936 8.1191 19.2598 8.1191Z" fill="#18244F"/>
<path d="M26.7585 4.89514H28.9342C28.8565 4.50662 28.7399 4.1181 28.6234 3.76843C28.3126 2.75827 27.6132 1.94237 26.7585 1.39844V4.89514Z" fill="#18244F"/>
<path d="M40.901 40.7172L41.0952 41.9604C41.0952 41.9604 41.0952 41.9216 41.1341 41.9216C41.7557 41.2222 42.6105 40.7172 43.5429 40.4063C43.6983 40.3675 43.8149 40.3286 43.9703 40.2898C44.0091 40.2898 44.0091 40.2898 44.048 40.2509C44.2034 40.2121 44.3977 40.1732 44.5531 40.1344C44.8639 40.0955 45.1747 40.0567 45.5244 40.0567C45.6798 40.0567 45.8352 40.0567 45.9518 40.0567C45.9906 40.0567 46.0295 40.0567 46.0683 40.0567C46.1849 40.0567 46.2626 40.0955 46.3791 40.0955C46.418 40.0955 46.4568 40.0955 46.4957 40.0955C46.6122 40.0955 46.7288 40.1344 46.8454 40.1732C46.8842 40.1732 46.8842 40.1732 46.9231 40.1732C47.3504 40.2898 47.739 40.4063 48.1275 40.6006C48.1663 40.6395 48.244 40.6395 48.2829 40.6783L45.097 23.6222C44.9027 22.2623 43.4652 21.291 41.7169 21.291C41.4837 21.291 41.2506 21.291 41.0175 21.3299C39.5411 21.563 38.3367 22.4177 37.9093 23.5444C37.7539 23.933 37.7151 24.2826 37.7928 24.6712L40.901 40.7172Z" fill="#18244F"/>
<path d="M48.9038 43.9425C48.9038 43.8648 48.8649 43.8259 48.8649 43.7482C48.8649 43.7094 48.826 43.6705 48.826 43.6316C48.826 43.5928 48.7872 43.5539 48.7872 43.5151C48.7872 43.4762 48.7483 43.4374 48.7095 43.3597C48.7095 43.3208 48.7095 43.3208 48.6706 43.282C48.6318 43.2043 48.5929 43.1654 48.5541 43.0877C48.049 42.2718 47 41.7279 45.7956 41.6113C45.679 41.6113 45.6013 41.6113 45.4847 41.6113C45.2516 41.6113 45.0185 41.6113 44.7854 41.6502C44.6689 41.6502 44.5523 41.689 44.4357 41.7279C44.3969 41.7279 44.3192 41.7667 44.2803 41.7667C44.2026 41.7667 44.1638 41.8056 44.0861 41.8056C44.0472 41.8056 43.9695 41.8444 43.9307 41.8833C43.853 41.9221 43.8141 41.9221 43.7752 41.961C43.7364 41.961 43.6975 41.9999 43.6198 42.0387C43.5421 42.0776 43.5033 42.0776 43.4256 42.1164C43.3867 42.1164 43.3479 42.1553 43.309 42.1553C43.2313 42.1941 43.1536 42.233 43.1148 42.2718C43.0759 42.2718 43.0759 42.3107 43.0371 42.3107C42.9594 42.3495 42.8816 42.4272 42.8039 42.4661C42.6097 42.6215 42.4543 42.738 42.2989 42.9323C42.1046 43.1654 41.9103 43.3985 41.7938 43.6705C41.7938 43.6705 41.7938 43.6705 41.7938 43.7094C41.7549 43.7871 41.7161 43.8648 41.7161 43.9425C41.7161 43.9813 41.7161 43.9813 41.6772 44.0202C41.6384 44.0979 41.6384 44.1367 41.6384 44.2144C41.6384 44.2533 41.6384 44.2921 41.5995 44.2921C41.5995 44.331 41.5607 44.4087 41.5607 44.4475C41.5607 44.4864 41.5607 44.5253 41.5607 44.5641C41.5607 44.603 41.5607 44.6418 41.5607 44.7195C41.5607 44.7584 41.5607 44.7972 41.5607 44.8749C41.5607 44.9138 41.5607 44.9915 41.5607 45.0303C41.5607 45.0303 41.5607 45.0303 41.5607 45.0692C41.6772 45.9239 42.3377 46.6233 43.2313 47.0118C43.3479 46.9729 43.5033 47.0118 43.6587 47.0506C44.4357 47.3615 45.3293 47.0895 45.9898 46.3513C46.3784 45.7297 46.4949 44.7972 45.9898 44.2921C45.9121 44.2144 45.7179 44.1367 45.5236 44.1756C45.6402 44.2921 45.7567 44.4475 45.7567 44.6418C45.7956 45.0692 45.4847 45.4577 45.0574 45.5354C44.5911 45.6131 44.1249 45.4189 43.853 45.0303C43.581 44.603 43.5421 44.059 43.8141 43.5928C44.1249 43.0489 44.63 42.6992 45.2516 42.6215C45.9121 42.5438 46.6115 42.738 47.0777 43.2043C48.0101 44.1756 48.049 45.4577 47.6605 46.5456C48.5541 45.8462 49.0592 44.9138 48.9038 43.9425Z" fill="#18244F"/>
<path d="M36.1996 25.2152C36.1996 25.1764 36.1996 25.1375 36.1996 25.0987C36.0053 24.7879 35.811 24.477 35.5779 24.2051H34.9563H13.976H13.3544C13.1213 24.5159 12.927 24.7879 12.7328 25.0987C12.7328 25.1375 12.7328 25.1764 12.7328 25.2152V25.2541L9.39148 42.5434H39.5409L36.1996 25.2541C36.1996 25.2541 36.1996 25.2541 36.1996 25.2152ZM24.4662 31.3539H30.9934C31.4207 31.3539 31.7704 31.7036 31.7704 32.1309C31.7704 32.5583 31.4207 32.908 30.9934 32.908H24.4662C24.0388 32.908 23.6891 32.5583 23.6891 32.1309C23.6891 31.7036 24.0388 31.3539 24.4662 31.3539ZM17.939 36.4047L19.2211 31.8978C19.3377 31.4705 19.8039 31.2373 20.1924 31.3539C20.6198 31.4705 20.8529 31.8978 20.7363 32.3252L19.4931 36.8709C19.3765 37.2206 19.0657 37.4537 18.716 37.4537C18.6383 37.4537 18.5606 37.4537 18.4829 37.4149C18.0555 37.2983 17.8224 36.8321 17.939 36.4047ZM33.7519 40.9893H13.1213C12.8882 40.9893 12.6551 40.8727 12.4997 40.6784C12.3443 40.4842 12.3054 40.2511 12.3443 40.018L15.2193 26.4197C15.297 25.9923 15.7244 25.7203 16.1518 25.798C16.5792 25.8757 16.8511 26.3031 16.7734 26.7305L14.0926 39.3575H33.713C34.1404 39.3575 34.4901 39.7071 34.4901 40.1345C34.4901 40.5619 34.1792 40.9893 33.7519 40.9893ZM35.1117 38.0365C35.0728 38.0365 34.9951 38.0365 34.9563 38.0365C34.6066 38.0365 34.2569 37.7645 34.1792 37.4149L32.0035 27.0024H27.0304C26.603 27.0024 26.2534 26.6528 26.2534 26.2254C26.2534 25.798 26.603 25.4484 27.0304 25.4484H32.6251C33.0137 25.4484 33.3245 25.7203 33.4022 26.07L35.7333 37.1429C35.811 37.5314 35.5391 37.9588 35.1117 38.0365Z" fill="#F6DC5C"/>
</svg>
