<svg width="18" height="13" viewBox="0 0 18 13" fill="none" xmlns="http://www.w3.org/2000/svg">
<path d="M11.5802 12.0761C11.6961 12.1919 11.8484 12.25 12 12.25C12.1516 12.25 12.304 12.1919 12.4198 12.0761L12.4199 12.0761L17.5761 6.91982C17.808 6.68792 17.808 6.31209 17.5761 6.08019L12.4198 0.923939C12.1879 0.692039 11.8121 0.692001 11.5802 0.92394C11.3483 1.15584 11.3483 1.53166 11.5802 1.76357C11.5802 1.76357 11.5802 1.76358 11.5802 1.76359L15.7229 5.90626H1.34376C1.01568 5.90626 0.75 6.17194 0.75 6.50002C0.75 6.8281 1.01568 7.09378 1.34376 7.09378H15.7229L11.5802 11.2364C11.3483 11.4683 11.3483 11.8442 11.5802 12.0761ZM11.5802 12.0761L11.757 11.8993L11.5802 12.0761C11.5802 12.0761 11.5802 12.0761 11.5802 12.0761Z" fill="black" stroke="black" stroke-width="0.5"/>
</svg>
