<svg width="34" height="16" viewBox="0 0 34 16" fill="none" xmlns="http://www.w3.org/2000/svg">
<path d="M0.378525 8.91336C0.37891 8.91374 0.379234 8.91419 0.379684 8.91458L7.12188 15.6243C7.62698 16.1269 8.44395 16.125 8.94672 15.6199C9.44943 15.1148 9.4475 14.2978 8.9424 13.7951L4.41569 9.29032L31.742 9.29032C32.4547 9.29032 33.0323 8.71265 33.0323 8C33.0323 7.28735 32.4547 6.70968 31.742 6.70968L4.41575 6.70968L8.94234 2.2049C9.44743 1.70219 9.44937 0.885222 8.94666 0.380125C8.44388 -0.125101 7.62685 -0.126842 7.12182 0.375739L0.37962 7.08542C0.379234 7.08581 0.37891 7.08626 0.37846 7.08664C-0.126896 7.59103 -0.125282 8.41065 0.378525 8.91336Z" fill="#18244F" fill-opacity="0.5"/>
</svg>
