<svg width="32" height="32" viewBox="0 0 32 32" fill="none" xmlns="http://www.w3.org/2000/svg">
<path d="M3.86888 3.67679C3.79386 3.93 3.7521 4.1975 3.7521 4.47503C3.7521 4.54643 3.75756 4.61649 3.7628 4.68655C3.65638 4.96499 3.46024 5.31082 3.09721 5.60115C2.89386 5.76378 2.82746 6.04493 2.92537 6.28621C3.06429 6.62852 3.47913 6.77035 3.79232 6.5744C3.9382 6.48312 4.08795 6.3678 4.22173 6.23149C4.10739 6.44648 3.94807 6.67242 3.72557 6.87329C3.52319 7.05599 3.46549 7.35072 3.57952 7.59837C3.6653 7.78464 3.8278 7.90568 4.00876 7.94833C4.18416 7.98966 4.37683 7.95738 4.53441 7.8362C4.67367 7.72908 4.81581 7.60379 4.93985 7.46418C5.07548 7.31163 5.18718 7.14139 5.25129 6.95876C5.64241 7.16539 6.08755 7.28361 6.56068 7.28361C7.45739 7.28361 8.25405 6.86184 8.76825 6.20757C8.78258 6.37593 8.81621 6.52585 8.86644 6.65492C9.09031 7.23012 9.87563 7.3139 10.246 6.8201C10.449 6.54944 10.4555 6.18224 10.2732 5.89723C10.0149 5.49352 10.0453 5.30326 10.0453 5.30326C10.065 5.31853 10.0873 5.33226 10.1119 5.34459C10.493 5.53644 10.9552 5.29703 11.0804 4.8891L11.0862 4.87023C11.1832 4.55414 11.0498 4.21769 10.7701 4.0413C10.0431 3.58266 9.58727 2.92125 9.58727 2.92125C8.57948 1.18055 6.9435 1.16747 6.9435 1.16747C6.9435 1.16747 6.38007 1.09268 5.73717 1.27689C5.73923 1.24838 5.74574 1.22117 5.74574 1.19215C5.74574 0.533756 5.212 0 4.55357 0C3.89514 0 3.3614 0.533756 3.3614 1.19215C3.3614 1.2775 3.37117 1.36042 3.38821 1.44068C3.00896 1.64021 2.74744 2.03346 2.74744 2.49177C2.74744 3.12594 3.24405 3.63949 3.86888 3.67679ZM6.56068 6.72189C5.89625 6.72189 5.30015 6.43032 4.88843 5.9704L4.79229 5.81713C6.65074 5.00961 7.19076 3.53617 7.34442 2.66089C7.61653 2.95713 8.00398 3.2534 8.51609 3.37226C8.70078 3.69841 8.80754 4.07421 8.80754 4.47503C8.80754 5.71395 7.79961 6.72189 6.56068 6.72189Z" fill="#18244F"/>
<path d="M31.2761 31.4388H10.238C10.5018 31.1915 10.6677 30.8415 10.6636 30.4507C10.6279 27.0644 10.5399 20.7014 10.5197 17.818C10.5104 16.4783 10.0648 15.1414 10.3051 13.8233L10.6032 12.1877C10.6078 12.1371 10.6109 12.0875 10.6138 12.0382C10.6939 10.6614 10.1614 9.79153 10.1548 9.78114C10.0849 9.6703 10.106 9.53215 10.1922 9.441C10.2077 9.42456 10.2212 9.40655 10.2412 9.39386C10.3723 9.31076 10.5448 9.34874 10.6282 9.47889C10.6589 9.52694 11.2553 10.4841 11.1798 12.0102L14.1737 11.8617C14.6466 11.8383 15.1146 11.7552 15.5667 11.6143L20.1653 10.1813C20.7416 10.0017 21.0857 9.41226 20.9587 8.82219C20.8204 8.17948 20.1786 7.77796 19.5401 7.93472L15.9155 8.82467C15.0484 9.03758 14.143 9.04072 13.2745 8.83381L10.0146 8.05727C9.57762 7.95318 9.13113 7.89684 8.68242 7.88357L8.68612 7.87891H8.53568H8.44233H7.51682H6.22965H5.87611C4.90298 7.87891 4.00555 8.44761 3.5903 9.32763L1.68793 13.3581C1.56615 13.6162 1.5017 13.9036 1.5017 14.1893C1.5017 15.0567 2.06671 15.7993 2.88641 16.0468C2.92772 16.0593 2.96653 16.0766 3.00911 16.0864L7.85774 17.2107C8.24804 17.3013 8.64409 17.0855 8.78068 16.7097C8.92906 16.3005 8.71705 15.8459 8.3081 15.6966L4.64489 14.3596C4.49568 14.3052 4.3761 14.1897 4.31686 14.0425C4.25734 13.8955 4.26282 13.7293 4.33222 13.5867L5.11966 11.9627C5.1874 11.823 5.35553 11.7648 5.49487 11.8324C5.51372 11.8416 5.52702 11.8564 5.54276 11.8689C5.64383 11.9489 5.6835 12.087 5.62487 12.2076L4.83743 13.8319L8.50064 15.1689C9.20004 15.4242 9.56236 16.2014 9.30866 16.9013C9.1109 17.4455 8.59445 17.793 8.0363 17.793C7.93536 17.793 7.83306 17.7816 7.73103 17.7579L2.8824 16.6336C2.87684 16.6323 2.87157 16.6304 2.86605 16.6291C2.82316 17.9098 2.92063 19.1914 3.16542 20.4495L3.28911 21.0853C3.47257 22.0282 3.57577 22.9837 3.59788 23.944C3.64142 25.8351 3.69967 28.5963 3.74383 30.4957C3.75247 30.8688 3.91429 31.2015 4.16669 31.4388H0.662693C0.507454 31.4388 0.381836 31.5646 0.381836 31.7197C0.381836 31.8748 0.507454 32.0005 0.662693 32.0005H31.2761C31.4314 32.0005 31.557 31.8748 31.557 31.7197C31.557 31.5646 31.4314 31.4388 31.2761 31.4388ZM6.00611 31.4388C6.24734 31.2113 6.40446 30.8948 6.42435 30.5392C6.56797 27.9723 6.77189 23.8211 6.85613 22.304C6.86579 22.13 7.01017 21.996 7.1844 21.9972C7.35733 21.9984 7.49933 22.1341 7.50835 22.3068L7.93821 30.533C7.95689 30.891 8.11501 31.2098 8.35795 31.4388H6.00611Z" fill="#18244F"/>
<path d="M27.3776 21.9834C27.4061 21.6585 27.1424 21.3809 26.8162 21.3809L21.166 21.3809C21.1658 21.3809 21.1656 21.3809 21.1653 21.3809V28.1569C24.4593 27.8878 27.0889 25.2718 27.3776 21.9834Z" fill="#18244F"/>
<path d="M20.6035 15.1607C20.5996 14.8378 20.3244 14.5793 20.0018 14.6076C16.3882 14.9248 13.5856 18.0686 13.8181 21.8147C13.8768 22.76 14.1397 23.6528 14.5535 24.4581L20.6035 20.9401V15.1607Z" fill="#18244F"/>
<path d="M20.1705 28.167C20.3159 28.176 20.46 28.1789 20.6035 28.1789V21.5898L14.8303 24.9469C15.963 26.7659 17.9256 28.0277 20.1705 28.167Z" fill="#18244F"/>
<path d="M23.1291 19.9199H28.7786C29.0156 19.9199 29.2435 19.8195 29.4039 19.6444C29.5616 19.472 29.6404 19.2405 29.6201 19.0096C29.3189 15.5891 26.6173 12.8877 23.1968 12.5862C22.9656 12.5657 22.7338 12.6445 22.561 12.8026C22.3866 12.9625 22.2865 13.1898 22.2865 13.4263V19.0779C22.2865 19.5422 22.6644 19.9199 23.1291 19.9199ZM22.8482 13.4263C22.8482 13.3469 22.8819 13.2705 22.9406 13.2168C22.9919 13.1699 23.0561 13.1446 23.1236 13.1446C23.1315 13.1446 23.1395 13.1451 23.1474 13.1457C26.2964 13.4233 28.7832 15.9102 29.0605 19.059C29.0671 19.1345 29.0419 19.2078 28.9895 19.2651C28.9352 19.3242 28.8584 19.3582 28.7786 19.3582H23.1291C22.9741 19.3582 22.8482 19.2324 22.8482 19.0779V13.4263Z" fill="#18244F"/>
</svg>
