<svg width="46" height="48" viewBox="0 0 46 48" fill="none" xmlns="http://www.w3.org/2000/svg">
<path d="M5.14557 5.42523C5.03488 5.79884 4.97327 6.19355 4.97327 6.60306C4.97327 6.70841 4.98131 6.81178 4.98905 6.91516C4.83203 7.32601 4.54261 7.83629 4.00694 8.26469C3.7069 8.50465 3.60892 8.9195 3.75339 9.27551C3.95838 9.7806 4.57049 9.98988 5.03261 9.70075C5.24786 9.56606 5.46882 9.39591 5.66622 9.19477C5.49751 9.512 5.26243 9.84538 4.93411 10.1418C4.63549 10.4114 4.55035 10.8462 4.71861 11.2116C4.84518 11.4865 5.08496 11.6651 5.35197 11.728C5.61077 11.789 5.89508 11.7414 6.12758 11.5626C6.33306 11.4045 6.5428 11.2196 6.72583 11.0136C6.92595 10.7886 7.09077 10.5374 7.18537 10.2679C7.76247 10.5728 8.4193 10.7472 9.11741 10.7472C10.4405 10.7472 11.616 10.1249 12.3748 9.15948C12.3959 9.40789 12.4455 9.62911 12.5196 9.81955C12.85 10.6683 14.0087 10.7919 14.5552 10.0633C14.8547 9.66392 14.8644 9.1221 14.5954 8.70156C14.2142 8.10587 14.2591 7.82513 14.2591 7.82513C14.2881 7.84767 14.3211 7.86793 14.3573 7.88612C14.9196 8.1692 15.6017 7.81595 15.7864 7.21403L15.795 7.18618C15.938 6.71979 15.7412 6.22335 15.3286 5.96307C14.2559 5.28634 13.5832 4.3104 13.5832 4.3104C12.0962 1.74194 9.68227 1.72264 9.68227 1.72264C9.68227 1.72264 8.85091 1.61228 7.90229 1.88409C7.90533 1.84202 7.91494 1.80188 7.91494 1.75906C7.91494 0.787574 7.12739 0 6.15586 0C5.18432 0 4.39677 0.787574 4.39677 1.75906C4.39677 1.885 4.41119 2.00734 4.43633 2.12577C3.87673 2.42019 3.49084 3.00043 3.49084 3.67669C3.49084 4.61243 4.22361 5.37019 5.14557 5.42523ZM9.11741 9.91838C8.13702 9.91838 7.25745 9.48815 6.64995 8.80952L6.5081 8.58337C9.2503 7.39185 10.0471 5.21774 10.2738 3.92624C10.6754 4.36334 11.2471 4.80049 12.0027 4.97588C12.2752 5.45712 12.4327 6.01164 12.4327 6.60306C12.4327 8.43112 10.9455 9.91838 9.11741 9.91838Z" fill="#18244F"/>
<path d="M45.5856 46.3875H14.5432C14.9323 46.0225 15.1771 45.5062 15.171 44.9294C15.1184 39.9328 14.9885 30.544 14.9588 26.2895C14.945 24.3127 14.2876 22.3401 14.6421 20.3952L15.082 17.9818C15.0887 17.9071 15.0933 17.834 15.0976 17.7612C15.2159 15.7296 14.4301 14.4462 14.4203 14.4308C14.3171 14.2673 14.3483 14.0634 14.4755 13.929C14.4984 13.9047 14.5184 13.8781 14.5478 13.8594C14.7413 13.7368 14.9958 13.7928 15.1188 13.9848C15.1642 14.0557 16.0441 15.468 15.9327 17.7198L20.3503 17.5008C21.0481 17.4662 21.7387 17.3436 22.4057 17.1357L29.1912 15.0213C30.0415 14.7563 30.5492 13.8865 30.3618 13.0159C30.1578 12.0675 29.2108 11.4751 28.2687 11.7064L22.9204 13.0195C21.641 13.3337 20.3051 13.3383 19.0235 13.033L14.2135 11.8872C13.5687 11.7336 12.9099 11.6505 12.2478 11.6309L12.2533 11.624H12.0313H11.8935H10.5279H8.62864H8.10698C6.6711 11.624 5.34692 12.4632 4.7342 13.7617L1.92719 19.7087C1.7475 20.0896 1.6524 20.5137 1.6524 20.9352C1.6524 22.2151 2.48608 23.3109 3.69558 23.676C3.75654 23.6945 3.81381 23.7199 3.87664 23.7345L11.031 25.3934C11.6068 25.5271 12.1912 25.2086 12.3928 24.6542C12.6117 24.0504 12.2989 23.3796 11.6955 23.1592L6.29028 21.1865C6.07012 21.1062 5.89367 20.9358 5.80625 20.7187C5.71843 20.5018 5.72653 20.2565 5.82892 20.0461L6.99081 17.6498C7.09078 17.4436 7.33886 17.3578 7.54445 17.4576C7.57227 17.4711 7.5919 17.493 7.61512 17.5114C7.76425 17.6294 7.82278 17.8332 7.73628 18.0112L6.57438 20.4079L11.9796 22.3806C13.0116 22.7574 13.5462 23.9041 13.1718 24.9369C12.88 25.7398 12.118 26.2526 11.2944 26.2526C11.1455 26.2526 10.9945 26.2358 10.844 26.2008L3.68966 24.5419C3.68147 24.54 3.67368 24.5372 3.66553 24.5352C3.60225 26.4249 3.74607 28.3159 4.10727 30.1724L4.28979 31.1105C4.56048 32.5018 4.71275 33.9116 4.74538 35.3286C4.80963 38.119 4.89557 42.1932 4.96073 44.9958C4.97348 45.5464 5.21225 46.0373 5.58468 46.3875H0.414414C0.185353 46.3875 0 46.573 0 46.8019C0 47.0308 0.185353 47.2163 0.414414 47.2163H45.5856C45.8146 47.2163 46 47.0308 46 46.8019C46 46.573 45.8146 46.3875 45.5856 46.3875ZM8.29881 46.3875C8.65475 46.0518 8.88659 45.5848 8.91593 45.0601C9.12784 41.2724 9.42874 35.1473 9.55303 32.9087C9.5673 32.652 9.78032 32.4542 10.0374 32.456C10.2926 32.4578 10.5021 32.658 10.5154 32.9128L11.1497 45.0509C11.1772 45.5791 11.4106 46.0496 11.769 46.3875H8.29881Z" fill="#18244F"/>
<path d="M39.8333 32.4369C39.8754 31.9575 39.4862 31.548 39.005 31.548L30.6679 31.548C30.6675 31.548 30.6672 31.5479 30.6668 31.5479V41.5461C35.5272 41.149 39.4074 37.289 39.8333 32.4369Z" fill="#18244F"/>
<path d="M29.8379 22.3701C29.8321 21.8936 29.4259 21.5121 28.9499 21.5539C23.6181 22.022 19.4827 26.6608 19.8257 32.1883C19.9124 33.5831 20.3003 34.9004 20.9109 36.0887L29.8379 30.8978V22.3701Z" fill="#18244F"/>
<path d="M29.1987 41.5613C29.4133 41.5746 29.6259 41.5788 29.8377 41.5788V31.8564L21.319 36.8099C22.9904 39.4938 25.8863 41.3557 29.1987 41.5613Z" fill="#F6DC5C"/>
<path d="M33.5645 29.3932H41.9006C42.2502 29.3932 42.5865 29.2451 42.8233 28.9867C43.056 28.7324 43.1721 28.3908 43.1422 28.05C42.6978 23.003 38.7115 19.0169 33.6645 18.5721C33.3233 18.5418 32.9814 18.6581 32.7264 18.8914C32.469 19.1274 32.3213 19.4627 32.3213 19.8117V28.1508C32.3213 28.836 32.879 29.3932 33.5645 29.3932ZM33.1501 19.8117C33.1501 19.6946 33.1999 19.5819 33.2865 19.5025C33.3622 19.4333 33.4569 19.3961 33.5564 19.3961C33.5682 19.3961 33.5799 19.3967 33.5916 19.3977C38.238 19.8073 41.9075 23.4767 42.3166 28.1229C42.3263 28.2344 42.2891 28.3424 42.2118 28.427C42.1317 28.5142 42.0183 28.5644 41.9006 28.5644H33.5645C33.3359 28.5644 33.1501 28.3789 33.1501 28.1508V19.8117Z" fill="#18244F"/>
</svg>
