<svg width="14" height="13" viewBox="0 0 14 13" fill="none" xmlns="http://www.w3.org/2000/svg">
<path d="M1.52337 1.42995C1.49058 1.52842 1.47233 1.63246 1.47233 1.74039C1.47233 1.76816 1.47472 1.79541 1.47701 1.82266C1.43049 1.93094 1.34476 2.06544 1.18608 2.17836C1.09721 2.2416 1.06818 2.35095 1.11098 2.44478C1.1717 2.57791 1.35302 2.63307 1.48991 2.55686C1.55367 2.52136 1.61913 2.47651 1.6776 2.4235C1.62763 2.50712 1.55799 2.59498 1.46073 2.67311C1.37228 2.74416 1.34706 2.85878 1.3969 2.9551C1.43439 3.02754 1.50542 3.07461 1.58451 3.0912C1.66118 3.10727 1.74539 3.09472 1.81427 3.04759C1.87514 3.00593 1.93727 2.9572 1.99148 2.90291C2.05076 2.84358 2.09959 2.77737 2.12761 2.70635C2.29856 2.78671 2.49313 2.83268 2.69993 2.83268C3.09187 2.83268 3.44008 2.66865 3.66483 2.4142C3.6711 2.47967 3.6858 2.53798 3.70775 2.58818C3.8056 2.81188 4.14886 2.84446 4.31073 2.65242C4.39946 2.54716 4.40232 2.40435 4.32263 2.2935C4.20973 2.13649 4.22303 2.0625 4.22303 2.0625C4.23162 2.06844 4.24139 2.07378 4.25211 2.07857C4.41868 2.15319 4.62074 2.06008 4.67544 1.90143L4.67799 1.89409C4.72037 1.77116 4.66206 1.64031 4.53982 1.57171C4.22206 1.39334 4.02282 1.13611 4.02282 1.13611C3.58232 0.459129 2.86725 0.454042 2.86725 0.454042C2.86725 0.454042 2.62099 0.424955 2.33998 0.496596C2.34088 0.485509 2.34373 0.474929 2.34373 0.463642C2.34373 0.207584 2.11044 0 1.82264 0C1.53485 0 1.30156 0.207584 1.30156 0.463642C1.30156 0.496836 1.30583 0.529084 1.31328 0.560298C1.14751 0.637899 1.0332 0.790835 1.0332 0.969079C1.0332 1.21572 1.25027 1.41544 1.52337 1.42995ZM2.69993 2.61422C2.40951 2.61422 2.14896 2.50083 1.96901 2.32196L1.92699 2.26235C2.73929 1.9483 2.97533 1.37526 3.04249 1.03485C3.16143 1.15006 3.33078 1.26528 3.55461 1.31151C3.63534 1.43835 3.682 1.58451 3.682 1.74039C3.682 2.22222 3.24145 2.61422 2.69993 2.61422Z" fill="white"/>
<path d="M13.5036 12.2262H4.30803C4.42332 12.13 4.49583 11.9939 4.49403 11.8419C4.47845 10.5249 4.43996 8.05029 4.43115 6.92891C4.42706 6.40787 4.23233 5.88795 4.33735 5.37533L4.46766 4.73923C4.46964 4.71954 4.47101 4.70027 4.47227 4.68107C4.50731 4.1456 4.27454 3.80732 4.27165 3.80328C4.24108 3.76017 4.25033 3.70644 4.288 3.67099C4.29479 3.6646 4.30069 3.65759 4.30941 3.65266C4.36672 3.62034 4.44212 3.63511 4.47857 3.68573C4.49201 3.70442 4.75266 4.07665 4.71967 4.67017L6.02826 4.61245C6.23496 4.60333 6.43954 4.571 6.63712 4.51621L8.64715 3.9589C8.89901 3.88907 9.04941 3.65981 8.99391 3.43033C8.93346 3.18037 8.65293 3.02422 8.37388 3.08518L6.78958 3.4313C6.41059 3.5141 6.01486 3.51532 5.63522 3.43485L4.21037 3.13284C4.01937 3.09236 3.82422 3.07045 3.62809 3.06529L3.62971 3.06348H3.56395H3.52315H3.11862H2.55601H2.40148C1.97614 3.06348 1.58389 3.28465 1.40238 3.6269L0.57088 5.1944C0.517652 5.29477 0.48948 5.40656 0.48948 5.51766C0.48948 5.855 0.736438 6.14382 1.09472 6.24007C1.11278 6.24492 1.12974 6.25165 1.14835 6.25549L3.26763 6.69272C3.43823 6.72797 3.61134 6.64403 3.67104 6.49789C3.7359 6.33874 3.64323 6.16194 3.46448 6.10386L1.86333 5.5839C1.79812 5.56273 1.74585 5.51782 1.71995 5.46059C1.69394 5.40342 1.69634 5.33877 1.72667 5.28331L2.07085 4.65172C2.10046 4.59737 2.17395 4.57476 2.23485 4.60105C2.24309 4.60461 2.2489 4.61039 2.25578 4.61524C2.29996 4.64634 2.3173 4.70005 2.29167 4.74698L1.94749 5.37867L3.54864 5.89862C3.85434 5.99793 4.0127 6.30018 3.90181 6.5724C3.81538 6.78403 3.58964 6.91918 3.34568 6.91918C3.30156 6.91918 3.25685 6.91475 3.21225 6.90552L1.09297 6.46829C1.09054 6.46779 1.08823 6.46704 1.08582 6.46653C1.06707 6.9646 1.10968 7.46303 1.21667 7.95234L1.27074 8.1996C1.35092 8.5663 1.39603 8.9379 1.4057 9.31138C1.42473 10.0469 1.45019 11.1207 1.46949 11.8594C1.47326 12.0045 1.544 12.1339 1.65432 12.2262H0.12276C0.0549061 12.2262 0 12.2751 0 12.3354C0 12.3958 0.0549061 12.4447 0.12276 12.4447H13.5036C13.5714 12.4447 13.6263 12.3958 13.6263 12.3354C13.6263 12.2751 13.5714 12.2262 13.5036 12.2262ZM2.45831 12.2262C2.56375 12.1377 2.63242 12.0147 2.64111 11.8763C2.70389 10.878 2.79302 9.26359 2.82984 8.67356C2.83406 8.60589 2.89717 8.55378 2.97332 8.55424C3.04891 8.5547 3.11098 8.60748 3.11492 8.67464L3.30281 11.8739C3.31097 12.0131 3.38008 12.1371 3.48627 12.2262H2.45831Z" fill="white"/>
<path d="M11.7993 8.54977C11.8118 8.42341 11.6965 8.31546 11.554 8.31546L9.08431 8.31546C9.08419 8.31546 9.0841 8.31543 9.08398 8.31543V10.9507C10.5237 10.846 11.6731 9.82866 11.7993 8.54977Z" fill="white"/>
<path d="M8.83891 5.89661C8.83721 5.77103 8.71689 5.67048 8.57589 5.68149C6.99646 5.80487 5.77145 7.02752 5.87308 8.48443C5.89874 8.85206 6.01366 9.19927 6.19452 9.51248L8.83891 8.14429V5.89661Z" fill="white"/>
<path d="M8.64859 10.9544C8.71216 10.9579 8.77516 10.9591 8.83789 10.9591V8.39648L6.31445 9.7021C6.80957 10.4095 7.66739 10.9002 8.64859 10.9544Z" fill="white"/>
<path d="M9.9425 7.74697H12.4118C12.5154 7.74697 12.615 7.70793 12.6852 7.63982C12.7541 7.57278 12.7885 7.48275 12.7796 7.39293C12.648 6.06267 11.4672 5.01203 9.97211 4.8948C9.87105 4.8868 9.76975 4.91747 9.69422 4.97897C9.61798 5.04115 9.57422 5.12953 9.57422 5.22153V7.41949C9.57422 7.60008 9.73942 7.74697 9.9425 7.74697ZM9.81974 5.22153C9.81974 5.19065 9.83448 5.16094 9.86014 5.14004C9.88256 5.1218 9.91061 5.11198 9.9401 5.11198C9.94358 5.11198 9.94705 5.11214 9.95053 5.11241C11.3269 5.22036 12.4139 6.18752 12.5351 7.41213C12.538 7.44152 12.5269 7.47 12.504 7.4923C12.4803 7.51528 12.4467 7.52851 12.4118 7.52851H9.9425C9.87476 7.52851 9.81974 7.4796 9.81974 7.41949V5.22153Z" fill="white"/>
</svg>
