<svg width="19" height="16" viewBox="0 0 19 16" fill="none" xmlns="http://www.w3.org/2000/svg">
<path d="M6.94027 2.47151C7.15709 1.54047 6.57803 0.609929 5.6469 0.39309C4.71578 0.176252 3.78519 0.755228 3.56837 1.68627C3.35155 2.61731 3.93061 3.54785 4.86173 3.76469C5.79286 3.98153 6.72345 3.40255 6.94027 2.47151Z" fill="#18244F"/>
<path d="M3.49635 9.96981C4.08538 10.8678 4.77698 10.854 5.37008 10.6601L6.8418 11.1332H3.13874L1.11255 6.10875C0.993347 5.81317 0.656971 5.6701 0.361382 5.78931C0.0657154 5.90851 -0.0771925 6.24489 0.0420898 6.54056L0.0419359 6.5404L2.21395 11.926C2.30191 12.1443 2.51393 12.2875 2.74934 12.2875H4.55404L4.64693 13.2236C2.82645 13.3134 2.3073 14.077 2.27606 14.1411L2.24381 14.1955V14.5404C1.99224 14.621 1.81008 14.8566 1.81008 15.1349C1.81008 15.4797 2.08967 15.7591 2.43443 15.7591C2.77927 15.7591 3.05862 15.4797 3.05862 15.1349C3.05862 14.8873 2.91425 14.6741 2.70532 14.5731V14.3375C2.82937 14.1998 3.31543 13.7518 4.69264 13.6853L4.77829 14.5479C4.53765 14.6346 4.36534 14.8643 4.36534 15.1348C4.36534 15.4796 4.64477 15.759 4.98954 15.759C5.3343 15.759 5.61388 15.4796 5.61388 15.1348C5.61388 14.8942 5.47752 14.6856 5.27789 14.5813L5.36685 13.6848C6.17297 13.723 6.67511 13.8949 6.97593 14.0559C7.14639 14.1472 7.25321 14.2354 7.31554 14.2964C7.33116 14.3118 7.34394 14.3255 7.35425 14.337V14.5622C7.13323 14.6583 6.97863 14.8784 6.97863 15.1347C6.97863 15.4795 7.25805 15.7589 7.60282 15.7589C7.94774 15.7589 8.22717 15.4795 8.22717 15.1347C8.22717 14.8648 8.05563 14.6356 7.81583 14.5484V14.1953L7.78351 14.141C7.75242 14.0768 7.23312 13.3133 5.41256 13.2234L5.50545 12.2873H7.2893C7.60813 12.2873 7.86647 12.0289 7.86647 11.7102C7.86647 11.6129 7.84223 11.5214 7.79975 11.4411L8.4044 11.6354L10.5804 14.5449C10.7694 14.7975 11.0588 14.9308 11.3517 14.9308C11.5521 14.9308 11.7542 14.8684 11.9271 14.7392C12.3523 14.4209 12.4393 13.818 12.1211 13.3925L9.76114 10.2374C9.64062 10.0762 9.47663 9.95934 9.28516 9.89778L5.97027 8.83224C5.69345 8.27238 5.50014 7.64065 5.35161 7.02392C3.99903 6.61482 3.35013 6.05296 3.34059 6.04403C3.02346 5.76976 2.98806 5.28278 3.26541 4.96187C3.41178 4.79257 3.62402 4.69561 3.84781 4.69561C4.03212 4.69561 4.21066 4.76202 4.35018 4.88261C4.35149 4.88323 4.35988 4.88984 4.37265 4.89931C4.41652 4.93186 4.469 4.96742 4.52464 5.0022C4.62761 5.067 4.78368 5.15642 4.99315 5.25346C4.88649 4.48121 4.28454 3.77675 3.62949 3.87194C2.95943 3.96929 2.21334 4.66036 2.2816 5.85003C2.38564 7.48527 2.66445 8.46308 3.49635 9.96981Z" fill="#18244F"/>
<path d="M7.38672 8.46683H16.4289V15.7392H17.2369V8.46683H18.4042V7.69727H7.38672V8.46683Z" fill="#18244F"/>
<path d="M16.396 7.00505H15.0173V3.84991H13.8886V1.2334H13.273V6.46643H13.8886V4.23462H14.6325V7.00505H13.2539V7.31287H16.396V7.00505Z" fill="#18244F"/>
<path d="M9.95117 7.21728V7.31271H12.2983V7.00488H10.1252C10.0803 7.08561 10.0211 7.15733 9.95117 7.21728Z" fill="#18244F"/>
<path d="M4.44359 5.13277C4.36748 5.08514 4.31399 5.04712 4.28206 5.02334C4.26605 5.01156 4.25551 5.00325 4.25027 4.99902L4.2502 4.9991C3.99293 4.77716 3.60453 4.80563 3.38244 5.06266C3.15996 5.31993 3.1882 5.70856 3.44547 5.93104C3.52727 6.00661 5.0821 7.29024 8.39468 7.29024C8.39861 7.29024 8.40238 7.29024 8.40622 7.29024C8.75222 7.29024 9.11715 7.27639 9.50124 7.24622C9.84023 7.21944 10.0935 6.92308 10.0668 6.58409C10.04 6.2451 9.74396 5.99199 9.40489 6.01869C9.05204 6.0464 8.71928 6.05894 8.40615 6.05894C6.90511 6.05848 5.84843 5.77297 5.1739 5.49939C4.83691 5.36272 4.59535 5.22843 4.44359 5.13277Z" fill="#18244F"/>
</svg>
