<svg width="56" height="48" viewBox="0 0 56 48" fill="none" xmlns="http://www.w3.org/2000/svg">
<path d="M20.8783 7.43415C21.5306 4.63303 19.7884 1.83342 16.9871 1.18104C14.1857 0.528666 11.3859 2.27057 10.7336 5.07168C10.0813 7.8728 11.8234 10.6724 14.6248 11.3248C17.4262 11.9772 20.2259 10.2353 20.8783 7.43415Z" fill="#18244F"/>
<path d="M10.5191 29.997C12.2912 32.6987 14.372 32.657 16.1564 32.0738L20.5841 33.497H9.44315L3.34721 18.3807C2.98857 17.4914 1.97655 17.061 1.08725 17.4196C0.19771 17.7783 -0.23224 18.7903 0.126631 19.6798L0.126168 19.6793L6.66086 35.8825C6.9255 36.5391 7.56336 36.97 8.27161 36.97H13.7012L13.9807 39.7863C8.5036 40.0565 6.9417 42.3537 6.8477 42.5468L6.75069 42.7103V43.748C5.99382 43.9906 5.44579 44.6994 5.44579 45.5366C5.44579 46.5738 6.28694 47.4145 7.32419 47.4145C8.36168 47.4145 9.20213 46.5738 9.20213 45.5366C9.20213 44.7917 8.76778 44.1502 8.13918 43.8464V43.1377C8.5124 42.7233 9.97474 41.3755 14.1182 41.1755L14.3759 43.7707C13.6519 44.0314 13.1335 44.7225 13.1335 45.5363C13.1335 46.5736 13.9742 47.4143 15.0114 47.4143C16.0487 47.4143 16.8898 46.5736 16.8898 45.5363C16.8898 44.8123 16.4796 44.1849 15.879 43.8712L16.1466 41.1739C18.5719 41.2889 20.0826 41.8059 20.9877 42.2903C21.5005 42.5651 21.8219 42.8305 22.0094 43.0141C22.0564 43.0604 22.0949 43.1013 22.1259 43.1361V43.8135C21.4609 44.1027 20.9958 44.7649 20.9958 45.5361C20.9958 46.5734 21.8365 47.414 22.8737 47.414C23.9114 47.414 24.7521 46.5734 24.7521 45.5361C24.7521 44.7241 24.236 44.0344 23.5146 43.7721V42.7098L23.4174 42.5464C23.3238 42.3533 21.7614 40.056 16.2842 39.7858L16.5636 36.9695H21.9305C22.8897 36.9695 23.6669 36.1918 23.6669 35.233C23.6669 34.9404 23.594 34.6651 23.4662 34.4234L25.2853 35.0082L31.8321 43.7614C32.4007 44.5215 33.2713 44.9226 34.1525 44.9226C34.7554 44.9226 35.3633 44.7348 35.8836 44.346C37.163 43.3884 37.4247 41.5746 36.4673 40.2945L29.3672 30.802C29.0046 30.3172 28.5112 29.9655 27.9352 29.7803L17.962 26.5745C17.1292 24.8901 16.5476 22.9895 16.1008 21.134C12.0314 19.9032 10.0792 18.2128 10.0505 18.186C9.09632 17.3608 8.98982 15.8957 9.82425 14.9302C10.2646 14.4208 10.9032 14.1291 11.5765 14.1291C12.131 14.1291 12.6681 14.3289 13.0879 14.6917C13.0918 14.6936 13.1171 14.7135 13.1555 14.742C13.2875 14.8399 13.4454 14.9469 13.6128 15.0515C13.9226 15.2465 14.3921 15.5155 15.0223 15.8075C14.7014 13.4841 12.8904 11.3647 10.9196 11.6511C8.90369 11.9439 6.65901 14.0231 6.86437 17.6023C7.1774 22.5221 8.01623 25.4639 10.5191 29.997Z" fill="#18244F"/>
<path d="M22.2236 25.4745H49.4277V47.354H51.8587V25.4745H55.3706V23.1592H22.2236V25.4745Z" fill="#18244F"/>
<path d="M49.3314 21.0754H45.1833V11.5829H41.7875V3.71094H39.9355V19.4549H41.7875V12.7404H44.0257V21.0754H39.8781V22.0015H49.3314V21.0754Z" fill="#F6DC5C"/>
<path d="M29.9414 21.7132V22.0003H37.0028V21.0742H30.4649C30.3299 21.3171 30.1519 21.5329 29.9414 21.7132Z" fill="#18244F"/>
<path d="M13.368 15.4427C13.139 15.2994 12.9781 15.185 12.882 15.1135C12.8339 15.0781 12.8022 15.0531 12.7864 15.0403L12.7862 15.0406C12.0122 14.3728 10.8437 14.4585 10.1755 15.2318C9.50611 16.0058 9.59108 17.175 10.3651 17.8444C10.6112 18.0718 15.289 21.9337 25.2552 21.9337C25.267 21.9337 25.2784 21.9337 25.2899 21.9337C26.3309 21.9337 27.4288 21.892 28.5844 21.8012C29.6043 21.7207 30.3662 20.829 30.2859 19.8092C30.2053 18.7893 29.3146 18.0278 28.2945 18.1081C27.2329 18.1915 26.2318 18.2292 25.2897 18.2292C20.7737 18.2278 17.5946 17.3688 15.5652 16.5457C14.5514 16.1345 13.8246 15.7305 13.368 15.4427Z" fill="#18244F"/>
</svg>
