<svg width="20" height="17" viewBox="0 0 20 17" fill="none" xmlns="http://www.w3.org/2000/svg">
<path d="M19.6334 0H5.4496C5.255 0 5.08203 0.172974 5.08203 0.367569V8.38922C5.08203 8.58381 5.255 8.75679 5.4496 8.75679C5.6442 8.75679 5.81717 8.58381 5.81717 8.38922V0.735138H19.2659V9.08111H9.60097C9.40637 9.08111 9.2334 9.25409 9.2334 9.44868C9.2334 9.64328 9.40637 9.81625 9.60097 9.81625H19.6334C19.828 9.81625 20.001 9.64328 20.001 9.44868V0.367569C20.001 0.172974 19.8496 0 19.6334 0Z" fill="#18244F"/>
<path d="M2.09843 8.25937C3.18509 8.25937 4.06601 7.37845 4.06601 6.29179C4.06601 5.20513 3.18509 4.32422 2.09843 4.32422C1.01177 4.32422 0.130859 5.20513 0.130859 6.29179C0.130859 7.37845 1.01177 8.25937 2.09843 8.25937Z" fill="#18244F"/>
<path d="M16.7572 14.0545C17.7245 14.0545 18.5086 13.2704 18.5086 12.3031C18.5086 11.3359 17.7245 10.5518 16.7572 10.5518C15.79 10.5518 15.0059 11.3359 15.0059 12.3031C15.0059 13.2704 15.79 14.0545 16.7572 14.0545Z" fill="#18244F"/>
<path d="M10.2279 14.0545C11.1952 14.0545 11.9793 13.2704 11.9793 12.3031C11.9793 11.3359 11.1952 10.5518 10.2279 10.5518C9.26067 10.5518 8.47656 11.3359 8.47656 12.3031C8.47656 13.2704 9.26067 14.0545 10.2279 14.0545Z" fill="#18244F"/>
<path d="M8.92976 8.19446L11.4595 4.92959C11.546 4.82148 11.5244 4.67013 11.4163 4.58364C11.3081 4.49715 11.1568 4.51877 11.0703 4.62688L8.56219 7.91338C8.32435 7.82689 8.04327 7.87014 7.84867 8.04311L6.16218 9.49176L2.72433 8.79987C2.68109 8.79987 2.61622 8.77825 2.57298 8.77825C2.42163 8.75663 2.27028 8.735 2.0973 8.735H2.05406C0.929733 8.735 0 9.51339 0 10.4864V16.0431H4.12974V10.5945L6.1838 11.0053C6.22705 11.0053 6.27029 11.0269 6.33516 11.0269C6.50813 11.0269 6.6811 10.962 6.81083 10.8539L8.75679 9.16744C9.08111 8.90798 9.14598 8.49717 8.92976 8.19446Z" fill="#18244F"/>
<path d="M16.778 14.4219H16.7347C15.5023 14.4219 14.5293 15.1138 14.5293 15.9786V16.0651H19.005V15.9786C19.005 15.1138 18.0104 14.4219 16.778 14.4219Z" fill="#18244F"/>
<path d="M10.2487 14.4219H10.2054C8.97298 14.4219 8 15.1138 8 15.9786V16.0651H12.4757V15.9786C12.4541 15.1138 11.4595 14.4219 10.2487 14.4219Z" fill="#18244F"/>
<path d="M17.4922 1.9248H8.62733C8.43274 1.9248 8.25977 2.09778 8.25977 2.29237C8.25977 2.48697 8.43274 2.65994 8.62733 2.65994H17.4922C17.6868 2.65994 17.8598 2.48697 17.8598 2.29237C17.8598 2.09778 17.7084 1.9248 17.4922 1.9248Z" fill="#18244F"/>
<path d="M17.4918 4.54102H12.9945C12.7999 4.54102 12.627 4.71399 12.627 4.90858C12.627 5.10318 12.7999 5.27615 12.9945 5.27615H17.5135C17.7081 5.27615 17.881 5.10318 17.881 4.90858C17.8594 4.69237 17.7081 4.54102 17.4918 4.54102Z" fill="#18244F"/>
<path d="M17.4927 7.30762H11.9359C11.7413 7.30762 11.5684 7.48059 11.5684 7.67519C11.5684 7.86978 11.7413 8.04275 11.9359 8.04275H17.5143C17.7089 8.04275 17.8819 7.86978 17.8819 7.67519C17.8603 7.45897 17.7089 7.30762 17.4927 7.30762Z" fill="#18244F"/>
</svg>
