<svg width="42" height="47" viewBox="0 0 42 47" fill="none" xmlns="http://www.w3.org/2000/svg">
<path d="M57.1943 0H15.8734C15.3065 0 14.8026 0.503913 14.8026 1.07081V24.4398C14.8026 25.0067 15.3065 25.5106 15.8734 25.5106C16.4403 25.5106 16.9442 25.0067 16.9442 24.4398V2.14163H56.1234V26.4554H27.9673C27.4004 26.4554 26.8965 26.9593 26.8965 27.5262C26.8965 28.0931 27.4004 28.597 27.9673 28.597H57.1943C57.7612 28.597 58.2651 28.0931 58.2651 27.5262V1.07081C58.2651 0.503913 57.8242 0 57.1943 0Z" fill="#18244F"/>
<path d="M6.10977 24.0626C9.27547 24.0626 11.8418 21.4963 11.8418 18.3306C11.8418 15.1649 9.27547 12.5986 6.10977 12.5986C2.94407 12.5986 0.377762 15.1649 0.377762 18.3306C0.377762 21.4963 2.94407 24.0626 6.10977 24.0626Z" fill="#18244F"/>
<path d="M29.794 40.9435C32.6118 40.9435 34.8961 38.6592 34.8961 35.8414C34.8961 33.0236 32.6118 30.7393 29.794 30.7393C26.9762 30.7393 24.6919 33.0236 24.6919 35.8414C24.6919 38.6592 26.9762 40.9435 29.794 40.9435Z" fill="#18244F"/>
<path d="M26.0145 23.8719L33.3842 14.3606C33.6362 14.0456 33.5732 13.6047 33.2582 13.3527C32.9433 13.1008 32.5024 13.1638 32.2504 13.4787L24.9437 23.0531C24.2508 22.8011 23.4319 22.9271 22.865 23.431L17.9519 27.6513L7.93663 25.6356C7.81065 25.6356 7.62168 25.5726 7.4957 25.5726C7.05478 25.5096 6.61385 25.4466 6.10994 25.4466H5.98396C2.70853 25.4466 0 27.7142 0 30.5488V46.737H12.0309V30.8637L18.0149 32.0605C18.1409 32.0605 18.2668 32.1235 18.4558 32.1235C18.9597 32.1235 19.4636 31.9345 19.8416 31.6196L25.5106 26.7064C26.4554 25.9506 26.6444 24.7538 26.0145 23.8719Z" fill="#18244F"/>
<path d="M29.8566 42.0137H29.7306C26.1403 42.0137 23.3057 44.0293 23.3057 46.5489V46.8008H36.3445V46.5489C36.2815 44.0293 33.384 42.0137 29.8566 42.0137Z" fill="#18244F"/>
<path d="M50.9581 5.60645H25.1325C24.5656 5.60645 24.0617 6.11036 24.0617 6.67726C24.0617 7.24416 24.5656 7.74807 25.1325 7.74807H50.9581C51.525 7.74807 52.0289 7.24416 52.0289 6.67726C52.0289 6.11036 51.588 5.60645 50.9581 5.60645Z" fill="#18244F"/>
<path d="M50.958 13.2275H37.8562C37.2893 13.2275 36.7854 13.7315 36.7854 14.2984C36.7854 14.8653 37.2893 15.3692 37.8562 15.3692H51.021C51.5879 15.3692 52.0918 14.8653 52.0918 14.2984C52.0288 13.6685 51.5879 13.2275 50.958 13.2275Z" fill="#18244F"/>
<path d="M51.259 21H35.0708C34.5039 21 34 21.5039 34 22.0708C34 22.6377 34.5039 23.1416 35.0708 23.1416H51.322C51.8889 23.1416 52.3928 22.6377 52.3928 22.0708C52.3298 21.4409 51.8889 21 51.259 21Z" fill="#18244F"/>
</svg>
