<svg width="13" height="13" viewBox="0 0 13 13" fill="none" xmlns="http://www.w3.org/2000/svg">
<path fill-rule="evenodd" clip-rule="evenodd" d="M3.2067 2.02134C3.28428 2.26959 3.51702 2.56439 3.7963 2.70403C3.93594 2.76609 3.98249 2.78161 4.12213 2.79712C4.43245 2.79712 4.75828 2.65748 4.91344 2.47129C5.02205 2.33165 5.14617 2.03685 5.22375 1.75757L3.68769 1.35416C4.30832 1.44725 4.94447 1.54035 5.5651 1.63344C5.61165 1.63344 5.64268 1.63344 5.65819 1.5869L5.67371 1.47829C5.67371 1.43174 5.64268 1.41622 5.61165 1.38519L5.48752 1.32313C5.45649 1.30761 5.44097 1.27658 5.44097 1.23003C5.51855 -0.259478 3.42393 -0.430151 3.22222 0.904203C3.22222 0.919718 3.20671 0.919718 3.19119 0.919718C3.16016 0.919718 3.14464 0.935234 3.14464 0.966266L3.11361 1.199C3.11361 1.23003 3.12913 1.26106 3.16016 1.26106L3.2067 1.27658C3.17567 1.4938 3.14464 1.80412 3.2067 2.02134ZM5.03756 4.6435L6.26331 4.8452H6.55811L6.99255 4.79865L7.42699 5.26413C7.45802 5.31067 7.48905 5.38825 7.45802 5.45032C7.42699 5.51238 7.22528 5.66754 7.1477 5.7296C7.13219 5.74512 7.08564 5.74511 7.05461 5.74511L6.34089 5.7296L4.3859 5.6365C4.30832 5.60547 4.26178 5.55893 4.19971 5.52789L3.54805 4.59695L2.92742 6.55193C2.92742 6.56745 2.92742 6.64503 2.92742 6.73812L3.70321 8.8793C3.74976 9.03445 3.76527 9.20513 3.74976 9.36028L3.40841 11.4704L3.45496 11.6566L3.98249 11.7807C4.1842 11.8428 4.19971 12.2928 4.0911 12.3083H2.27576C2.19818 12.3083 2.29128 11.517 2.30679 11.4084L2.47747 9.59302L2.58608 9.39132C2.64814 9.22064 2.66365 9.03445 2.64814 8.84826L2.4154 7.2036H2.30679L2.5085 8.8793C2.53953 9.04997 2.5085 9.20513 2.46195 9.36028L1.37585 11.4704L1.39136 11.6566L1.81029 11.7807C1.98096 11.8428 1.96545 12.2928 1.85684 12.3083H0.0414927C-0.036086 12.3083 0.0104613 12.029 0.0570085 11.8273L1.15863 9.34477L1.17414 9.18961L0.848312 7.34324C0.786249 7.00189 0.724186 6.75364 0.81728 6.28817L1.531 3.35569C1.79477 2.54887 2.49298 2.26959 3.16016 2.48681C3.5015 2.59542 3.82733 2.81264 4.01352 3.13847L4.99102 4.61247L5.03756 4.6435ZM4.37039 0.252541C4.7738 0.361151 5.02205 0.749045 4.9755 1.15245L4.83586 1.13694C4.82034 0.811108 4.60312 0.516309 4.27729 0.423214C3.93595 0.33012 3.5946 0.485278 3.42393 0.780077H3.37738C3.53254 0.376667 3.95146 0.143931 4.37039 0.252541Z" fill="#18244F"/>
<path fill-rule="evenodd" clip-rule="evenodd" d="M7.53625 2.40915C8.93267 2.2695 10.3291 2.12986 11.71 1.99022C11.71 2.73498 11.71 3.7435 11.71 4.48826C10.3136 4.5348 8.91715 4.58135 7.53625 4.6279C7.53625 3.96072 7.53625 3.06081 7.53625 2.40915ZM7.35006 2.20744C7.35006 3.04529 7.35006 4.13139 7.35006 4.96924C8.88612 4.93821 10.4222 4.90718 11.9582 4.87615C11.9582 3.89866 11.9582 2.67291 11.9582 1.71094C10.4222 1.88161 8.88612 2.05228 7.35006 2.20744ZM7.75347 2.53327C7.75347 2.59534 7.75347 2.67291 7.75347 2.73498C8.11033 2.70395 8.4672 2.67291 8.82406 2.64188C8.82406 2.57982 8.82406 2.50224 8.82406 2.42466C8.4672 2.47121 8.11033 2.50224 7.75347 2.53327ZM8.88612 4.27104C8.88612 4.3331 8.88612 4.39516 8.88612 4.47274C9.02576 4.47274 9.18092 4.45722 9.32056 4.45722C9.32056 4.39516 9.32056 4.31758 9.32056 4.25552C9.1654 4.25552 9.02576 4.25552 8.88612 4.27104ZM8.32755 4.28655C8.32755 4.34861 8.32755 4.41068 8.32755 4.47274C8.46719 4.47274 8.60684 4.45722 8.74648 4.45722C8.74648 4.39516 8.74648 4.3331 8.74648 4.25552C8.60684 4.27104 8.46719 4.28655 8.32755 4.28655ZM7.7845 4.30207C7.7845 4.36413 7.7845 4.42619 7.7845 4.48826C7.92414 4.48826 8.04827 4.47274 8.18791 4.47274C8.18791 4.41068 8.18791 4.34861 8.18791 4.28655C8.04827 4.30207 7.90863 4.30207 7.7845 4.30207ZM11.1514 3.75902C10.9807 3.77453 10.8411 3.91417 10.8411 4.08485C10.8411 4.25552 10.9807 4.39516 11.1514 4.37965C11.3221 4.37965 11.4617 4.22449 11.4617 4.05382C11.4772 3.88314 11.3376 3.7435 11.1514 3.75902ZM11.1514 3.85211C11.0273 3.85211 10.9342 3.96072 10.9342 4.06933C10.9342 4.19346 11.0273 4.28655 11.1514 4.27104C11.2755 4.27104 11.3686 4.16243 11.3686 4.05382C11.3686 3.94521 11.2755 3.85211 11.1514 3.85211ZM11.1514 2.98323C10.9807 2.99874 10.8411 3.13839 10.8411 3.30906C10.8411 3.47973 10.9807 3.60386 11.1514 3.60386C11.3221 3.58834 11.4617 3.4487 11.4617 3.27803C11.4772 3.09184 11.3376 2.96771 11.1514 2.98323ZM11.1514 3.07632C11.0273 3.09184 10.9342 3.18493 10.9342 3.30906C10.9342 3.43319 11.0273 3.51076 11.1514 3.51076C11.2755 3.51076 11.3686 3.40215 11.3686 3.27803C11.3686 3.1539 11.2755 3.07632 11.1514 3.07632ZM11.1514 2.20744C10.9807 2.22296 10.8411 2.37811 10.8411 2.54879C10.8411 2.71946 10.9807 2.84359 11.1514 2.82807C11.3221 2.81256 11.4617 2.6574 11.4617 2.48672C11.4772 2.31605 11.3376 2.19193 11.1514 2.20744ZM11.1514 2.30054C11.0273 2.31605 10.9342 2.40915 10.9342 2.53327C10.9342 2.6574 11.0273 2.73498 11.1514 2.73498C11.2755 2.71946 11.3686 2.62637 11.3686 2.50224C11.3686 2.37811 11.2755 2.28502 11.1514 2.30054ZM7.73795 4.00727C7.73795 4.0383 7.73795 4.06933 7.73795 4.10036C8.26549 4.06933 8.79303 4.05382 9.32056 4.02278C9.41366 4.27104 9.64639 4.44171 9.92567 4.42619C10.2981 4.41068 10.5929 4.08485 10.5929 3.71247C10.5929 3.34009 10.2981 3.04529 9.92567 3.07632C9.56881 3.10735 9.27401 3.43319 9.27401 3.79005C9.27401 3.8366 9.27401 3.88314 9.28953 3.92969C8.79303 3.9452 8.26549 3.97624 7.73795 4.00727ZM9.39814 3.91417C9.58433 3.89866 9.77052 3.89866 9.95671 3.88314C9.95671 3.91417 9.95671 3.94521 9.95671 3.97624C9.78603 3.99175 9.59984 3.99175 9.42917 4.00727C9.52227 4.20897 9.72397 4.3331 9.94119 4.31758C10.267 4.30207 10.5153 4.02278 10.5153 3.69695C10.5153 3.37112 10.267 3.12287 9.94119 3.13839C9.63088 3.1539 9.38262 3.43319 9.38262 3.75902C9.38262 3.82108 9.38262 3.86763 9.39814 3.91417ZM10.4687 2.28502C10.267 2.30054 10.0808 2.31605 9.89464 2.34708C9.89464 2.54879 9.89464 2.73498 9.89464 2.93668C10.0808 2.92117 10.2825 2.90565 10.4687 2.89013C10.4687 2.67291 10.4687 2.48672 10.4687 2.28502ZM9.67742 2.3626C9.49123 2.37811 9.30505 2.39363 9.13437 2.40915C9.13437 2.59534 9.13437 2.78152 9.13437 2.98323C9.32056 2.96771 9.50675 2.9522 9.67742 2.93668C9.67742 2.75049 9.67742 2.54879 9.67742 2.3626ZM7.75347 3.57283C7.75347 3.63489 7.75347 3.71247 7.75347 3.77453C8.11033 3.75902 8.4672 3.72798 8.82406 3.71247C8.82406 3.63489 8.82406 3.57283 8.82406 3.49525C8.4672 3.52628 8.11033 3.5418 7.75347 3.57283ZM7.75347 3.23148C7.75347 3.29354 7.75347 3.37112 7.75347 3.43319C8.11033 3.40215 8.4672 3.38664 8.82406 3.35561C8.82406 3.27803 8.82406 3.21597 8.82406 3.13839C8.4672 3.16942 8.11033 3.20045 7.75347 3.23148ZM7.75347 2.87462C7.75347 2.93668 7.75347 3.01426 7.75347 3.07632C8.11033 3.04529 8.4672 3.01426 8.82406 2.99874C8.82406 2.92117 8.82406 2.8591 8.82406 2.78152C8.4672 2.82807 8.11033 2.8591 7.75347 2.87462ZM5.814 5.43472H8.45168V5.13992C9.35159 5.13992 9.66191 5.1244 10.5773 5.1244V5.43472H11.6634V5.99328H5.814V5.43472ZM5.47266 6.10189H12.0203V6.67598H9.5533L6.41912 10.7101V11.7496H10.3136V12.3082H5.98468V10.5704L8.99473 6.69149H5.47266V6.10189Z" fill="#18244F"/>
</svg>
