<svg width="49" height="43" viewBox="0 0 49 43" fill="none" xmlns="http://www.w3.org/2000/svg">
<path d="M27.165 1.59833C27.5481 1.9814 27.7633 2.50094 27.7633 3.04268C27.7633 3.58441 27.5481 4.10395 27.165 4.48702C26.7819 4.87012 26.2623 5.08535 25.7206 5.08535C25.179 5.08535 24.6594 4.87012 24.2763 4.48702C23.8932 4.10395 23.678 3.58441 23.678 3.04268C23.678 2.50094 23.8932 1.9814 24.2763 1.59833C24.6594 1.21523 25.179 1 25.7206 1C26.2623 1 26.7819 1.21523 27.165 1.59833Z" stroke="#181E36" stroke-width="2"/>
<mask id="path-2-inside-1" fill="white">
<path d="M19.0712 18.3521L24.1608 19.7329L22.0745 25.6461C21.9438 26.0163 21.9655 26.4234 22.1348 26.7776C22.3042 27.1318 22.6073 27.4042 22.9775 27.5349C23.3477 27.6657 23.7547 27.6439 24.1089 27.4746C24.4631 27.3053 24.7356 27.0022 24.8663 26.632L27.0513 20.4453C27.1746 20.096 27.2245 19.7251 27.1978 19.3557C27.1712 18.9863 27.0686 18.6263 26.8965 18.2984C26.7243 17.9704 26.4864 17.6815 26.1974 17.4498C25.9085 17.218 25.5749 17.0484 25.2174 16.9515L21.5144 15.9469L24.1264 10.3772L27.8173 12.3255C28.3633 12.6136 28.9917 12.7052 29.5972 12.5851C30.2027 12.465 30.7485 12.1404 31.1431 11.6658L34.8718 7.17791C35.1079 6.87466 35.2168 6.49143 35.1755 6.10933C35.1342 5.72722 34.9459 5.37622 34.6504 5.13044C34.3549 4.88466 33.9755 4.76334 33.5922 4.79229C33.209 4.82125 32.852 4.99815 32.5969 5.28553L29.216 9.35352C29.1568 9.4248 29.0749 9.4735 28.984 9.49154C28.8931 9.50958 28.7988 9.49584 28.7169 9.45258L20.3625 5.04113C20.1995 4.95515 20.0207 4.90362 19.837 4.88958C19.6533 4.87553 19.4687 4.89933 19.2946 4.95953L12.5768 7.28316L9.99675 13.5212C9.9225 13.7009 9.88436 13.8934 9.88452 14.0878C9.88468 14.2822 9.92314 14.4747 9.9977 14.6543C10.0723 14.8339 10.1814 14.997 10.319 15.1344C10.4566 15.2718 10.62 15.3807 10.7997 15.4549C10.9794 15.5292 11.1719 15.5673 11.3663 15.5672C11.5608 15.567 11.7533 15.5286 11.9328 15.4541C12.1124 15.3795 12.2755 15.2703 12.4129 15.1327C12.5503 14.9951 12.6592 14.8317 12.7335 14.652L14.8024 9.6455L18.9812 8.20031C19.0562 8.17473 19.137 8.17172 19.2136 8.19171C19.2903 8.21171 19.3593 8.25383 19.4122 8.31278C19.4651 8.37172 19.4995 8.44494 19.5111 8.52328C19.5227 8.60162 19.511 8.68165 19.4774 8.75339L15.8412 16.5042L14.8749 24.6972C14.8424 24.9709 14.7267 25.228 14.5433 25.4338L9.52585 31.0769C9.26505 31.3706 9.13157 31.7559 9.15478 32.1479C9.17799 32.54 9.35598 32.9067 9.6496 33.1675C9.94322 33.4284 10.3284 33.562 10.7205 33.5388C11.1126 33.5157 11.4794 33.3377 11.7403 33.0441L17.0939 27.0215C17.4602 26.6097 17.6913 26.0955 17.7559 25.5482L18.5626 18.6947C18.5693 18.6369 18.5885 18.5813 18.6187 18.5316C18.649 18.482 18.6896 18.4394 18.7379 18.4069C18.7861 18.3744 18.8407 18.3527 18.8981 18.3433C18.9555 18.3339 19.0143 18.3369 19.0704 18.3523L19.0712 18.3521Z"/>
</mask>
<path d="M19.0712 18.3521L19.5949 16.4219L19.187 16.3113L18.7692 16.3751L19.0712 18.3521ZM24.1608 19.7329L26.0468 20.3984L26.7636 18.3668L24.6844 17.8027L24.1608 19.7329ZM22.0745 25.6461L23.9604 26.3119L23.9605 26.3116L22.0745 25.6461ZM24.8663 26.632L22.9805 25.9659L22.9804 25.966L24.8663 26.632ZM27.0513 20.4453L28.9371 21.1113L28.9372 21.1111L27.0513 20.4453ZM25.2174 16.9515L24.6938 18.8817L24.6942 18.8818L25.2174 16.9515ZM21.5144 15.9469L19.7037 15.0977L18.6926 17.2537L20.9908 17.8771L21.5144 15.9469ZM24.1264 10.3772L25.06 8.60848L23.2058 7.62974L22.3156 9.52803L24.1264 10.3772ZM27.8173 12.3255L26.8837 14.0942L26.8839 14.0943L27.8173 12.3255ZM31.1431 11.6658L32.681 12.9443L32.6814 12.9439L31.1431 11.6658ZM34.8718 7.17791L36.4101 8.45601L36.4304 8.43162L36.4499 8.4066L34.8718 7.17791ZM32.5969 5.28553L31.1014 3.95757L31.0796 3.98204L31.0587 4.0072L32.5969 5.28553ZM29.216 9.35352L27.6778 8.07519L27.6774 8.07573L29.216 9.35352ZM28.7169 9.45258L27.783 11.2212L27.783 11.2212L28.7169 9.45258ZM20.3625 5.04113L21.2963 3.27255L21.2959 3.27229L20.3625 5.04113ZM19.2946 4.95953L18.6411 3.06934L18.6409 3.0694L19.2946 4.95953ZM12.5768 7.28316L11.923 5.39303L11.0726 5.68719L10.7286 6.51877L12.5768 7.28316ZM9.99675 13.5212L8.14859 12.7568L8.14836 12.7574L9.99675 13.5212ZM12.7335 14.652L10.8851 13.8882L10.8851 13.8882L12.7335 14.652ZM14.8024 9.6455L14.1487 7.75534L13.2978 8.04959L12.954 8.88166L14.8024 9.6455ZM18.9812 8.20031L18.335 6.30758L18.3276 6.31015L18.9812 8.20031ZM19.4774 8.75339L21.2881 9.60285L21.2893 9.60029L19.4774 8.75339ZM15.8412 16.5042L14.0305 15.6547L13.8929 15.9481L13.855 16.2699L15.8412 16.5042ZM14.8749 24.6972L16.861 24.9329L16.8612 24.9315L14.8749 24.6972ZM14.5433 25.4338L13.0501 24.1033L13.0487 24.1049L14.5433 25.4338ZM9.52585 31.0769L8.03121 29.748L8.03045 29.7489L9.52585 31.0769ZM11.7403 33.0441L10.2455 31.7153L10.2452 31.7156L11.7403 33.0441ZM17.0939 27.0215L15.5996 25.6921L15.5991 25.6927L17.0939 27.0215ZM17.7559 25.5482L19.7421 25.7828L19.7422 25.782L17.7559 25.5482ZM18.5626 18.6947L20.5489 18.9285L20.549 18.9272L18.5626 18.6947ZM19.0704 18.3523L18.5412 20.281L18.9517 20.3936L19.3724 20.3293L19.0704 18.3523ZM18.5475 20.2824L23.6371 21.6632L24.6844 17.8027L19.5949 16.4219L18.5475 20.2824ZM22.2747 19.0675L20.1884 24.9807L23.9605 26.3116L26.0468 20.3984L22.2747 19.0675ZM20.1885 24.9803C19.8813 25.8507 19.9323 26.8075 20.3305 27.6403L23.9392 25.9148C23.9986 26.0392 24.0063 26.182 23.9604 26.3119L20.1885 24.9803ZM20.3305 27.6403C20.7286 28.4729 21.4412 29.1135 22.3117 29.4208L23.6434 25.649C23.7735 25.695 23.8798 25.7906 23.9392 25.9148L20.3305 27.6403ZM22.3117 29.4208C23.1821 29.7282 24.1389 29.6771 24.9716 29.279L23.2463 25.6702C23.3706 25.6108 23.5134 25.6031 23.6434 25.649L22.3117 29.4208ZM24.9716 29.279C25.8043 28.8809 26.4448 28.1683 26.7522 27.2979L22.9804 25.966C23.0263 25.836 23.122 25.7296 23.2463 25.6702L24.9716 29.279ZM26.7522 27.298L28.9371 21.1113L25.1654 19.7792L22.9805 25.9659L26.7522 27.298ZM28.9372 21.1111C29.1521 20.5023 29.2391 19.8558 29.1927 19.2118L25.203 19.4996C25.2099 19.5945 25.1971 19.6897 25.1654 19.7795L28.9372 21.1111ZM29.1927 19.2118C29.1462 18.5679 28.9674 17.9405 28.6673 17.3688L25.1256 19.2279C25.1698 19.3121 25.1962 19.4046 25.203 19.4996L29.1927 19.2118ZM28.6673 17.3688C28.3673 16.7972 27.9525 16.2937 27.4489 15.8897L24.946 19.0099C25.0202 19.0694 25.0814 19.1436 25.1256 19.2279L28.6673 17.3688ZM27.4489 15.8897C26.9454 15.4858 26.3638 15.19 25.7406 15.0211L24.6942 18.8818C24.786 18.9067 24.8717 18.9503 24.946 19.0099L27.4489 15.8897ZM25.7411 15.0213L22.0381 14.0167L20.9908 17.8771L24.6938 18.8817L25.7411 15.0213ZM23.3252 16.7961L25.9372 11.2264L22.3156 9.52803L19.7037 15.0977L23.3252 16.7961ZM23.1928 12.1459L26.8837 14.0942L28.751 10.5568L25.06 8.60848L23.1928 12.1459ZM26.8839 14.0943C27.8357 14.5965 28.931 14.7562 29.9863 14.5468L29.208 10.6233C29.0523 10.6542 28.8909 10.6306 28.7507 10.5566L26.8839 14.0943ZM29.9863 14.5468C31.0416 14.3375 31.993 13.7719 32.681 12.9443L29.6052 10.3872C29.5039 10.509 29.3637 10.5924 29.208 10.6233L29.9863 14.5468ZM32.6814 12.9439L36.4101 8.45601L33.3335 5.89981L29.6048 10.3877L32.6814 12.9439ZM36.4499 8.4066C37.005 7.6936 37.261 6.79265 37.1639 5.89434L33.1871 6.32431C33.1726 6.19021 33.2108 6.05571 33.2937 5.94922L36.4499 8.4066ZM37.1639 5.89434C37.0668 4.99591 36.624 4.17063 35.9294 3.59285L33.3714 6.66803C33.2678 6.5818 33.2016 6.45854 33.1871 6.32431L37.1639 5.89434ZM35.9294 3.59285C35.235 3.01524 34.3429 2.72987 33.4415 2.79798L33.7429 6.78661C33.608 6.7968 33.4749 6.75409 33.3714 6.66803L35.9294 3.59285ZM33.4415 2.79798C32.5404 2.86606 31.7012 3.282 31.1014 3.95757L34.0924 6.61349C34.0028 6.7143 33.8776 6.77644 33.7429 6.78661L33.4415 2.79798ZM31.0587 4.0072L27.6778 8.07519L30.7541 10.6319L34.135 6.56387L31.0587 4.0072ZM27.6774 8.07573C27.9118 7.79349 28.2358 7.60103 28.5946 7.52982L29.3734 11.4533C29.9139 11.346 30.4018 11.0561 30.7545 10.6313L27.6774 8.07573ZM28.5946 7.52982C28.9535 7.45856 29.3265 7.51277 29.6507 7.68399L27.783 11.2212C28.2711 11.4789 28.8327 11.5606 29.3734 11.4533L28.5946 7.52982ZM29.6507 7.684L21.2963 3.27255L19.4286 6.80971L27.783 11.2212L29.6507 7.684ZM21.2959 3.27229C20.8903 3.0583 20.4456 2.93028 19.9895 2.8954L19.6845 6.88375C19.5958 6.87696 19.5087 6.85201 19.4291 6.80996L21.2959 3.27229ZM19.9895 2.8954C19.5329 2.86048 19.074 2.91965 18.6411 3.06934L19.9482 6.84973C19.8635 6.87902 19.7737 6.89058 19.6845 6.88375L19.9895 2.8954ZM18.6409 3.0694L11.923 5.39303L13.2306 9.17329L19.9484 6.84966L18.6409 3.0694ZM10.7286 6.51877L8.14859 12.7568L11.8449 14.2856L14.4249 8.04755L10.7286 6.51877ZM8.14836 12.7574C7.97384 13.1797 7.88414 13.6323 7.88452 14.0895L11.8845 14.0861C11.8846 14.1545 11.8712 14.2221 11.8452 14.285L8.14836 12.7574ZM7.88452 14.0895C7.8849 14.5466 7.97532 14.9991 8.15058 15.4212L11.8448 13.8874C11.871 13.9504 11.8845 14.0179 11.8845 14.0861L7.88452 14.0895ZM8.15058 15.4212C8.32583 15.8433 8.58251 16.2268 8.90601 16.5498L11.7321 13.719C11.7804 13.7672 11.8187 13.8244 11.8448 13.8874L8.15058 15.4212ZM8.90601 16.5498C9.22945 16.8727 9.61335 17.1288 10.0358 17.3033L11.5635 13.6065C11.6266 13.6326 11.6839 13.6708 11.7321 13.719L8.90601 16.5498ZM10.0358 17.3033C10.4584 17.478 10.9111 17.5675 11.368 17.5672L11.3647 13.5672C11.4327 13.5671 11.5003 13.5804 11.5635 13.6065L10.0358 17.3033ZM11.368 17.5672C11.8245 17.5668 12.2771 17.4767 12.6998 17.3012L11.1659 13.6069C11.2295 13.5806 11.297 13.5672 11.3647 13.5672L11.368 17.5672ZM12.6998 17.3012C13.1217 17.126 13.5052 16.8694 13.8283 16.5458L10.9975 13.7197C11.0459 13.6713 11.1031 13.633 11.1659 13.6069L12.6998 17.3012ZM13.8283 16.5458C14.1515 16.222 14.4075 15.8379 14.5819 15.4158L10.8851 13.8882C10.911 13.8256 10.949 13.7683 10.9975 13.7197L13.8283 16.5458ZM14.5819 15.4159L16.6508 10.4093L12.954 8.88166L10.8851 13.8882L14.5819 15.4159ZM15.4561 11.5357L19.6349 10.0905L18.3276 6.31015L14.1487 7.75534L15.4561 11.5357ZM19.6275 10.093C19.3316 10.1941 19.0121 10.2061 18.7087 10.1269L19.7186 6.25651C19.2619 6.13735 18.7808 6.1554 18.335 6.3076L19.6275 10.093ZM18.7087 10.1269C18.4051 10.0477 18.1323 9.88104 17.9236 9.64843L20.9008 6.97712C20.5863 6.62662 20.1754 6.3757 19.7186 6.25651L18.7087 10.1269ZM17.9236 9.64843C17.7143 9.41523 17.5785 9.12581 17.5326 8.81626L21.4895 8.2303C21.4204 7.76408 21.2158 7.3282 20.9008 6.97712L17.9236 9.64843ZM17.5326 8.81626C17.4868 8.50653 17.533 8.19016 17.6656 7.90649L21.2893 9.60029C21.4889 9.17314 21.5586 8.6967 21.4895 8.2303L17.5326 8.81626ZM17.6668 7.90393L14.0305 15.6547L17.6518 17.3536L21.2881 9.60284L17.6668 7.90393ZM13.855 16.2699L12.8887 24.463L16.8612 24.9315L17.8274 16.7384L13.855 16.2699ZM12.8889 24.4615C12.9047 24.3283 12.961 24.2033 13.0501 24.1033L16.0365 26.7644C16.4924 26.2528 16.7802 25.6135 16.861 24.9329L12.8889 24.4615ZM13.0487 24.1049L8.03121 29.748L11.0205 32.4059L16.0379 26.7628L13.0487 24.1049ZM8.03045 29.7489C7.41743 30.4391 7.10373 31.3446 7.15828 32.2661L11.1513 32.0297C11.1594 32.1671 11.1127 32.3021 11.0212 32.405L8.03045 29.7489ZM7.15828 32.2661C7.21283 33.1877 7.63126 34.0497 8.32132 34.6628L10.9779 31.6723C11.0807 31.7637 11.1431 31.8922 11.1513 32.0297L7.15828 32.2661ZM8.32132 34.6628C9.01127 35.2757 9.91662 35.5898 10.8384 35.5353L10.6026 31.5423C10.7402 31.5342 10.8752 31.5811 10.9779 31.6723L8.32132 34.6628ZM10.8384 35.5353C11.7602 35.4809 12.6223 35.0624 13.2353 34.3726L10.2452 31.7156C10.3365 31.6129 10.4649 31.5504 10.6026 31.5423L10.8384 35.5353ZM13.2351 34.3728L18.5887 28.3502L15.5991 25.6927L10.2455 31.7153L13.2351 34.3728ZM18.5882 28.3508C19.2266 27.6331 19.6294 26.7367 19.7421 25.7828L15.7697 25.3136C15.7531 25.4542 15.6937 25.5863 15.5996 25.6921L18.5882 28.3508ZM19.7422 25.782L20.5489 18.9285L16.5763 18.4609L15.7696 25.3144L19.7422 25.782ZM20.549 18.9272C20.5223 19.1556 20.4465 19.3755 20.3269 19.572L16.9106 17.4913C16.7305 17.7871 16.6164 18.1183 16.5761 18.4622L20.549 18.9272ZM20.3269 19.572C20.2072 19.7684 20.0466 19.9367 19.856 20.0652L17.6197 16.7487C17.3327 16.9422 17.0908 17.1955 16.9106 17.4913L20.3269 19.572ZM19.856 20.0652C19.665 20.194 19.4487 20.2797 19.2222 20.3169L18.5741 16.3697C18.2328 16.4258 17.9072 16.5548 17.6197 16.7487L19.856 20.0652ZM19.2222 20.3169C18.9969 20.3539 18.7646 20.3423 18.5412 20.281L19.5995 16.4235C19.264 16.3315 18.9142 16.3139 18.5741 16.3697L19.2222 20.3169ZM19.3724 20.3293L19.3732 20.3292L18.7692 16.3751L18.7684 16.3752L19.3724 20.3293Z" fill="#181E36" mask="url(#path-2-inside-1)"/>
<path d="M11.1648 38.0261V42.0005H1V41.309H9.47446H10.4745V40.309V36.3346H18.4967H19.4967V35.3346V31.36H27.5214H28.5214V30.36V26.3857H36.5432H37.5432V25.3857V21.4111H47.2582V22.1026H39.2364H38.2364V23.1026V27.0772H30.2113H29.2113V28.0772V32.0515H21.1895H20.1895V33.0515V37.0261H12.1648H11.1648V38.0261Z" stroke="#181E36" stroke-width="2"/>
</svg>
