<svg width="32" height="40" viewBox="0 0 32 40" fill="none" xmlns="http://www.w3.org/2000/svg">
<path d="M12.1428 27.1426H4.28571V28.5711H12.1428V27.1426Z" fill="#181E36"/>
<path d="M11.4286 15.7143C11.618 15.7143 11.7997 15.639 11.9336 15.5051C12.0676 15.3711 12.1428 15.1894 12.1428 15V13.4643C12.1417 12.7106 11.9374 11.9713 11.5515 11.3239C11.1656 10.6766 10.6124 10.1452 9.94998 9.78572C10.441 9.26363 10.7144 8.57387 10.7143 7.85714C10.7143 7.09938 10.4132 6.37266 9.87743 5.83684C9.34161 5.30102 8.61489 5 7.85713 5C7.09936 5 6.37264 5.30102 5.83682 5.83684C5.301 6.37266 4.99998 7.09938 4.99998 7.85714C4.99987 8.57387 5.27322 9.26363 5.76427 9.78572C5.10189 10.1452 4.54866 10.6766 4.16276 11.3239C3.77687 11.9713 3.57259 12.7106 3.57141 13.4643V15C3.57141 15.1894 3.64667 15.3711 3.78062 15.5051C3.91458 15.639 4.09626 15.7143 4.2857 15.7143H11.4286ZM7.85713 6.42857C8.13967 6.42857 8.41587 6.51236 8.6508 6.66933C8.88572 6.8263 9.06883 7.04942 9.17695 7.31045C9.28508 7.57149 9.31337 7.85873 9.25825 8.13584C9.20313 8.41296 9.06707 8.66751 8.86728 8.8673C8.66749 9.06708 8.41294 9.20314 8.13583 9.25827C7.85871 9.31339 7.57147 9.2851 7.31043 9.17697C7.0494 9.06885 6.82629 8.88574 6.66931 8.65082C6.51234 8.41589 6.42855 8.13969 6.42855 7.85714C6.42855 7.47826 6.57906 7.1149 6.84697 6.84699C7.11488 6.57908 7.47824 6.42857 7.85713 6.42857ZM4.99998 13.4643C5.00187 12.7355 5.2922 12.0371 5.80752 11.5218C6.32284 11.0065 7.02122 10.7162 7.74998 10.7143H7.96427C8.69303 10.7162 9.39141 11.0065 9.90673 11.5218C10.422 12.0371 10.7124 12.7355 10.7143 13.4643V14.2857H4.99998V13.4643Z" fill="#181E36"/>
<path d="M21.4286 5.71387H15V7.14244H21.4286V5.71387Z" fill="#181E36"/>
<path d="M21.4286 10H15V11.4286H21.4286V10Z" fill="#181E36"/>
<path d="M12.1428 22.8574H4.28571V24.286H12.1428V22.8574Z" fill="#181E36"/>
<path d="M21.4286 18.5713H4.28571V19.9999H21.4286V18.5713Z" fill="#181E36"/>
<path d="M21.4286 14.2861H15V15.7147H21.4286V14.2861Z" fill="#181E36"/>
<path d="M17.7499 28.1923L17.0356 26.8208L15.7642 27.4637L17.1928 30.3208C17.2543 30.4431 17.3496 30.5451 17.4673 30.6147C17.5851 30.6844 17.7204 30.7187 17.8571 30.7137H17.8999C18.0393 30.7052 18.1731 30.656 18.2849 30.5722C18.3966 30.4884 18.4813 30.3737 18.5285 30.2423L21.3856 22.3851L20.0428 21.8994L17.7499 28.1923Z" fill="#181E36"/>
<path d="M30.7143 5H28.5714V2.85714C28.5714 2.6677 28.4962 2.48602 28.3622 2.35207C28.2283 2.21811 28.0466 2.14286 27.8571 2.14286H25.7143V0.714286C25.7143 0.524845 25.639 0.343164 25.5051 0.20921C25.3711 0.075255 25.1894 0 25 0H0.714286C0.524845 0 0.343164 0.075255 0.20921 0.20921C0.075255 0.343164 0 0.524845 0 0.714286V33.5714C0 33.7609 0.075255 33.9426 0.20921 34.0765C0.343164 34.2105 0.524845 34.2857 0.714286 34.2857H2.85714V36.4286C2.85714 36.618 2.9324 36.7997 3.06635 36.9337C3.20031 37.0676 3.38199 37.1429 3.57143 37.1429H5.71429V39.2857C5.71429 39.4752 5.78954 39.6568 5.92349 39.7908C6.05745 39.9247 6.23913 40 6.42857 40H30.7143C30.9037 40 31.0854 39.9247 31.2194 39.7908C31.3533 39.6568 31.4286 39.4752 31.4286 39.2857V5.71429C31.4286 5.52485 31.3533 5.34316 31.2194 5.20921C31.0854 5.07525 30.9037 5 30.7143 5ZM1.42857 1.42857H24.2857V32.8571H1.42857V1.42857ZM4.28571 34.2857H25C25.1894 34.2857 25.3711 34.2105 25.5051 34.0765C25.639 33.9426 25.7143 33.7609 25.7143 33.5714V3.57143H27.1429V35.7143H4.28571V34.2857ZM30 38.5714H7.14286V37.1429H27.8571C28.0466 37.1429 28.2283 37.0676 28.3622 36.9337C28.4962 36.7997 28.5714 36.618 28.5714 36.4286V6.42857H30V38.5714Z" fill="#181E36"/>
</svg>
