<svg width="14" height="15" viewBox="0 0 14 15" fill="none" xmlns="http://www.w3.org/2000/svg">
<path d="M0.521977 2.60988H3.13186H3.18406C3.39285 3.49725 4.22801 4.17582 5.21977 4.17582C6.21153 4.17582 6.99449 3.49725 7.25548 2.60988H7.30768H13.0494C13.3626 2.60988 13.5714 2.40109 13.5714 2.08791C13.5714 1.77472 13.3626 1.56593 13.0494 1.56593H7.30768H7.25548C7.04669 0.67857 6.21153 0 5.21977 0C4.22801 0 3.44505 0.67857 3.18406 1.56593H3.13186H0.521977C0.208791 1.56593 0 1.77472 0 2.08791C0 2.40109 0.208791 2.60988 0.521977 2.60988ZM5.21977 1.04395C5.79394 1.04395 6.26372 1.51373 6.26372 2.08791C6.26372 2.66208 5.79394 3.13186 5.21977 3.13186C4.6456 3.13186 4.17582 2.66208 4.17582 2.08791C4.17582 1.51373 4.6456 1.04395 5.21977 1.04395Z" fill="black"/>
<path d="M0.521977 7.82961H6.7857H6.8379C7.04669 8.71697 7.88185 9.39554 8.87361 9.39554C9.86537 9.39554 10.6483 8.71697 10.9093 7.82961H10.9615H13.0494C13.3626 7.82961 13.5714 7.62082 13.5714 7.30763C13.5714 6.99445 13.3626 6.78566 13.0494 6.78566H10.9615H10.9093C10.7005 5.8983 9.86537 5.21973 8.87361 5.21973C7.88185 5.21973 7.09889 5.8983 6.8379 6.78566H6.7857H0.521977C0.208791 6.78566 0 6.99445 0 7.30763C0 7.62082 0.208791 7.82961 0.521977 7.82961ZM8.87361 6.26368C9.44778 6.26368 9.91756 6.73346 9.91756 7.30763C9.91756 7.88181 9.44778 8.35159 8.87361 8.35159C8.29943 8.35159 7.82966 7.88181 7.82966 7.30763C7.82966 6.73346 8.29943 6.26368 8.87361 6.26368Z" fill="black"/>
<path d="M0.521977 13.0493H3.13186H3.18406C3.39285 13.9367 4.22801 14.6153 5.21977 14.6153C6.21153 14.6153 6.99449 13.9367 7.25548 13.0493H7.30768H13.0494C13.3626 13.0493 13.5714 12.8405 13.5714 12.5274C13.5714 12.2142 13.3626 12.0054 13.0494 12.0054H7.30768H7.25548C7.04669 11.118 6.21153 10.4395 5.21977 10.4395C4.22801 10.4395 3.44505 11.118 3.18406 12.0054H3.13186H0.521977C0.208791 12.0054 0 12.2142 0 12.5274C0 12.8405 0.208791 13.0493 0.521977 13.0493ZM5.21977 11.4834C5.79394 11.4834 6.26372 11.9532 6.26372 12.5274C6.26372 13.1015 5.79394 13.5713 5.21977 13.5713C4.6456 13.5713 4.17582 13.1015 4.17582 12.5274C4.17582 11.9532 4.6456 11.4834 5.21977 11.4834Z" fill="black"/>
</svg>
