<svg width="9" height="13" viewBox="0 0 9 13" fill="none" xmlns="http://www.w3.org/2000/svg">
<path fill-rule="evenodd" clip-rule="evenodd" d="M2.74529 4.60114C3.29006 4.6082 3.73382 5.08021 3.73382 5.65652V7.58611C3.73382 7.98972 3.51633 8.34204 3.19872 8.51945L2.88364 11.7316C2.85552 12.0204 2.65841 12.2593 2.38334 12.2593H1.35077C1.07556 12.2593 0.878599 12.0204 0.850333 11.7316L0.535252 8.51945C0.21779 8.34188 0 7.98972 0 7.58611V5.65652C0 5.08021 0.443762 4.6082 0.988684 4.60114L1.45074 6.09559H1.59594L1.75586 5.31268C1.65604 5.29809 1.57853 5.20742 1.57853 5.09824C1.57853 4.97918 1.67091 4.88177 1.78383 4.88177H1.95014C2.06306 4.88177 2.15529 4.97918 2.15529 5.09824C2.15529 5.20742 2.07793 5.29809 1.97796 5.31268L2.13788 6.09559H2.28308L2.74529 4.60114ZM5.74481 2.22026C5.76921 2.19469 5.83556 2.14088 5.85296 2.10904C5.85296 2.10904 5.85296 2.0088 5.85296 1.73272C5.85296 1.3335 6.49696 1.3335 6.49696 1.73272C6.49696 2.0088 6.49696 2.10904 6.49696 2.10904C6.51436 2.14088 6.58071 2.19469 6.60511 2.22026C6.65718 2.27516 6.36456 2.37132 6.33823 2.37132C6.36768 2.5321 6.44861 2.61901 6.60392 2.66277C6.86485 2.7365 6.92495 2.73728 6.92495 2.96913V3.25619H6.10705V2.90136C6.10705 2.6794 6.06882 2.60881 5.93166 2.55453C5.97167 2.5081 5.99756 2.44818 6.01169 2.37132C5.98536 2.37132 5.69274 2.27516 5.74481 2.22026ZM4.54235 1.97633C4.5724 1.94465 4.65452 1.87814 4.67594 1.83892C4.67594 1.83892 4.67594 1.715 4.67594 1.37382C4.67594 0.880636 5.47168 0.880636 5.47168 1.37382C5.47168 1.715 5.47168 1.83892 5.47168 1.83892C5.49325 1.87814 5.57522 1.94465 5.60527 1.97633C5.66968 2.0441 5.30804 2.16284 5.27561 2.16284C5.31191 2.36159 5.41188 2.46889 5.60378 2.52316C5.92615 2.61414 6.00053 2.61508 6.00053 2.90136V3.25619H4.14724V2.88881C4.14724 2.61273 4.23843 2.60928 4.54384 2.52316C4.73575 2.46889 4.83571 2.36159 4.87216 2.16284C4.83958 2.16284 4.47809 2.0441 4.54235 1.97633ZM4.45875 0H6.46676C9.16057 0 9.16072 4.40443 6.46676 4.40443H6.10988L4.71566 5.67033C4.5666 5.80649 4.33765 5.69072 4.33765 5.48837L4.33706 4.40067C3.92097 4.37447 3.5376 4.21447 3.2255 3.96145C3.31669 3.82937 3.39092 3.68349 3.44477 3.52741C3.71909 3.77274 4.0733 3.92129 4.45875 3.92129H4.56615C4.6926 3.92129 4.79525 4.02953 4.79525 4.16286V4.9624L5.86352 3.99251C5.90503 3.94859 5.96245 3.92129 6.02583 3.92129H6.46676C8.55436 3.92129 8.55436 0.483142 6.46676 0.483142H4.45875C3.79199 0.483142 3.19753 0.932872 2.97646 1.59217C2.85939 1.48331 2.72773 1.39139 2.58492 1.32001C2.89955 0.525966 3.63802 0 4.45875 0ZM1.86699 1.47248C2.62553 1.47248 3.24052 2.12112 3.24052 2.92081C3.24052 3.72066 2.62553 4.36914 1.86699 4.36914C1.10844 4.36914 0.493449 3.72066 0.493449 2.92081C0.493449 2.12112 1.10844 1.47248 1.86699 1.47248Z" fill="#18244F"/>
</svg>
