<svg width="41" height="41" viewBox="0 0 41 41" fill="none" xmlns="http://www.w3.org/2000/svg">
<path d="M8.55184 7.96916C8.8835 7.84595 9.05248 7.47721 8.92927 7.14555C8.80606 6.81389 8.43731 6.6449 8.10565 6.76812C7.77399 6.89133 7.60501 7.26007 7.72822 7.59174C7.85143 7.9234 8.22018 8.09238 8.55184 7.96916Z" fill="#181E36"/>
<path d="M7.58834 10.849C7.92 10.7258 8.08898 10.3571 7.96577 10.0254C7.84256 9.69377 7.47381 9.52479 7.14215 9.648C6.81049 9.77121 6.64151 10.14 6.76472 10.4716C6.88793 10.8033 7.25668 10.9723 7.58834 10.849Z" fill="#181E36"/>
<path d="M4.81567 2.79707C4.89995 2.79707 4.9834 2.78049 5.06127 2.74827C5.13913 2.71605 5.20989 2.66883 5.26948 2.60929C5.32908 2.54976 5.37635 2.47908 5.4086 2.4013C5.44086 2.32352 5.45746 2.24015 5.45746 2.15595C5.45448 1.98087 5.50514 1.80907 5.60263 1.66354C5.70013 1.51802 5.83981 1.40574 6.00297 1.34173C6.0984 1.30135 6.20098 1.28055 6.30461 1.28055C6.40825 1.28055 6.51083 1.30135 6.60625 1.34173C6.69888 1.38617 6.78158 1.44882 6.8494 1.52593C6.91722 1.60304 6.96877 1.69303 7.00095 1.79052C7.07812 1.99261 7.07296 2.21687 6.98659 2.41521C6.90021 2.61355 6.73948 2.7702 6.53886 2.85157C6.38278 2.91199 6.2565 3.03093 6.18696 3.18304C6.11742 3.33515 6.11012 3.50838 6.16663 3.66579L6.76349 5.33911C6.79172 5.41846 6.83533 5.49148 6.89181 5.554C6.94829 5.61652 7.01655 5.66731 7.09268 5.70348C7.16882 5.73964 7.25133 5.76048 7.33553 5.76478C7.41972 5.76909 7.50394 5.75679 7.58337 5.72859C7.66281 5.70039 7.7359 5.65683 7.79849 5.6004C7.86107 5.54398 7.91191 5.47579 7.94812 5.39974C7.98432 5.32369 8.00518 5.24125 8.00949 5.15715C8.0138 5.07304 8.00149 4.98891 7.97326 4.90956L7.55289 3.73311C7.89441 3.45344 8.13988 3.07412 8.25496 2.64821C8.37003 2.2223 8.34895 1.77111 8.19467 1.35776C8.10289 1.10083 7.96057 0.864846 7.77611 0.663691C7.59165 0.462537 7.36876 0.30028 7.12058 0.186473C6.8724 0.0726663 6.60393 0.00960963 6.33098 0.00101526C6.05804 -0.00757911 5.78613 0.0384625 5.53126 0.13643C5.1238 0.295548 4.77463 0.575054 4.53037 0.937625C4.28611 1.3002 4.15839 1.72858 4.16426 2.16557C4.16551 2.24977 4.18336 2.33289 4.21677 2.4102C4.25019 2.4875 4.29853 2.55747 4.35902 2.61612C4.41951 2.67476 4.49097 2.72092 4.56932 2.75197C4.64768 2.78302 4.73139 2.79835 4.81567 2.79707Z" fill="#181E36"/>
<path d="M1.41676 8.7724C1.48151 8.71782 1.53488 8.65101 1.57381 8.57578C1.61274 8.50055 1.63647 8.41838 1.64365 8.33396C1.65082 8.24954 1.64131 8.16453 1.61564 8.08379C1.58997 8.00306 1.54865 7.92818 1.49405 7.86344C1.37912 7.72212 1.31217 7.54782 1.30291 7.36583C1.29364 7.18384 1.34255 7.00363 1.44253 6.85135C1.5754 6.64303 1.78293 6.49354 2.02248 6.4336C2.26203 6.37365 2.51542 6.4078 2.73061 6.52902C2.92302 6.64163 3.0631 6.82588 3.12025 7.04152C3.14776 7.15087 3.15194 7.26479 3.13252 7.37586C3.1131 7.48694 3.07052 7.59267 3.00754 7.68617C2.9629 7.75937 2.9333 7.84075 2.92048 7.92554C2.90765 8.01034 2.91185 8.09684 2.93285 8.17999C2.95384 8.26313 2.9912 8.34125 3.04273 8.40977C3.09426 8.47828 3.15893 8.53582 3.23296 8.579L4.84306 9.54597C4.98922 9.61615 5.15645 9.62856 5.31136 9.58075C5.46627 9.53294 5.59747 9.42841 5.67877 9.28804C5.76007 9.14766 5.78549 8.98176 5.74997 8.82344C5.71444 8.66513 5.62057 8.52604 5.4871 8.43396L4.36003 7.76675C4.44372 7.43458 4.44372 7.08681 4.36003 6.75465C4.29176 6.47606 4.16783 6.2142 3.99571 5.98486C3.82359 5.75552 3.60684 5.56345 3.35855 5.42023C2.85546 5.13371 2.26153 5.05187 1.69982 5.19169C1.1381 5.3315 0.651639 5.68224 0.341218 6.17124C0.0943341 6.55447 -0.0238165 7.0066 0.00398743 7.46173C0.0317913 7.91687 0.204096 8.35123 0.495787 8.70149C0.550897 8.76773 0.61872 8.82223 0.695244 8.86178C0.771768 8.90133 0.855439 8.92511 0.941307 8.93172C1.02717 8.93833 1.1135 8.92764 1.19516 8.90027C1.27683 8.87291 1.35218 8.82942 1.41676 8.7724Z" fill="#181E36"/>
<path d="M28.9114 11.2189C28.849 11.3311 28.8217 11.4594 28.833 11.5873C28.8443 11.7151 28.8937 11.8366 28.9748 11.9361C29.0559 12.0355 29.1649 12.1083 29.2878 12.1451C29.4107 12.1818 29.5418 12.1808 29.6641 12.1421L32.5662 11.2189C33.312 11.5217 34.1092 11.6774 34.9141 11.6773C38.2709 11.6773 41 9.05848 41 5.84025C41 2.62202 38.2709 0 34.9141 0C31.5572 0 28.8281 2.61882 28.8281 5.83705C28.828 7.08813 29.2413 8.30415 30.0037 9.29568L28.9114 11.2189ZM34.9141 1.28216C37.563 1.28216 39.7188 3.32721 39.7188 5.83705C39.7188 8.34688 37.563 10.3919 34.9141 10.3919C34.2051 10.3884 33.505 10.2332 32.8609 9.93676C32.7166 9.87192 32.5534 9.86279 32.4028 9.91112L30.8301 10.4176L31.3394 9.51365C31.4055 9.3969 31.4333 9.26234 31.4189 9.12892C31.4046 8.99551 31.3487 8.86997 31.2593 8.76999C30.5285 7.9672 30.1191 6.92297 30.1094 5.83705C30.1094 3.32721 32.2651 1.28216 34.9141 1.28216Z" fill="#181E36"/>
<path d="M32.9922 5.44531H36.8359C37.0058 5.44531 37.1688 5.37782 37.2889 5.25768C37.4091 5.13754 37.4766 4.97459 37.4766 4.80469C37.4766 4.63478 37.4091 4.47184 37.2889 4.3517C37.1688 4.23156 37.0058 4.16406 36.8359 4.16406H32.9922C32.8223 4.16406 32.6593 4.23156 32.5392 4.3517C32.4191 4.47184 32.3516 4.63478 32.3516 4.80469C32.3516 4.97459 32.4191 5.13754 32.5392 5.25768C32.6593 5.37782 32.8223 5.44531 32.9922 5.44531Z" fill="#181E36"/>
<path d="M32.9922 8.00781H36.8359C37.0058 8.00781 37.1688 7.94032 37.2889 7.82018C37.4091 7.70004 37.4766 7.53709 37.4766 7.36719C37.4766 7.19728 37.4091 7.03434 37.2889 6.9142C37.1688 6.79406 37.0058 6.72656 36.8359 6.72656H32.9922C32.8223 6.72656 32.6593 6.79406 32.5392 6.9142C32.4191 7.03434 32.3516 7.19728 32.3516 7.36719C32.3516 7.53709 32.4191 7.70004 32.5392 7.82018C32.6593 7.94032 32.8223 8.00781 32.9922 8.00781Z" fill="#181E36"/>
<path d="M13.4531 9.29465C13.9045 9.29358 14.341 9.13332 14.6863 8.84196C14.9866 9.6328 15.5196 10.3135 16.2146 10.7938C16.9096 11.2741 17.7339 11.5313 18.5781 11.5313C19.4223 11.5313 20.2466 11.2741 20.9416 10.7938C21.6367 10.3135 22.1697 9.6328 22.4699 8.84196C22.7501 9.07689 23.0912 9.22693 23.4534 9.2745C23.8156 9.32207 24.1838 9.26521 24.5149 9.11056C24.846 8.95592 25.1263 8.7099 25.3229 8.40134C25.5195 8.09278 25.6243 7.73444 25.625 7.36832V6.72621C25.6252 6.38786 25.5365 6.05542 25.3678 5.76235C25.1991 5.46928 24.9564 5.22591 24.6641 5.05673C24.2428 3.77207 23.4276 2.65352 22.3348 1.86053C21.242 1.06755 19.9273 0.640625 18.5781 0.640625C17.229 0.640625 15.9143 1.06755 14.8214 1.86053C13.7286 2.65352 12.9135 3.77207 12.4922 5.05673C12.1998 5.22591 11.9571 5.46928 11.7884 5.76235C11.6197 6.05542 11.531 6.38786 11.5313 6.72621V7.36832C11.5313 7.87922 11.7337 8.36919 12.0942 8.73044C12.4546 9.0917 12.9434 9.29465 13.4531 9.29465ZM14.0938 7.36832C14.0938 7.53862 14.0263 7.70194 13.9061 7.82236C13.786 7.94278 13.623 8.01043 13.4531 8.01043C13.2832 8.01043 13.1203 7.94278 13.0001 7.82236C12.88 7.70194 12.8125 7.53862 12.8125 7.36832V6.72621C12.8125 6.55592 12.88 6.39259 13.0001 6.27217C13.1203 6.15176 13.2832 6.08411 13.4531 6.08411C13.623 6.08411 13.786 6.15176 13.9061 6.27217C14.0263 6.39259 14.0938 6.55592 14.0938 6.72621V7.36832ZM18.5781 10.2578C18.008 10.2578 17.4506 10.0883 16.9765 9.77085C16.5024 9.45335 16.1329 9.00207 15.9148 8.47408C15.6966 7.9461 15.6395 7.36512 15.7507 6.80461C15.8619 6.2441 16.1365 5.72925 16.5397 5.32514C16.9428 4.92104 17.4565 4.64584 18.0157 4.53435C18.5749 4.42286 19.1546 4.48008 19.6813 4.69878C20.2081 4.91748 20.6583 5.28783 20.9751 5.76301C21.2919 6.23818 21.4609 6.79684 21.4609 7.36832C21.4609 8.13466 21.1572 8.86962 20.6166 9.4115C20.0759 9.95339 19.3427 10.2578 18.5781 10.2578ZM24.3437 7.36832C24.3437 7.53862 24.2763 7.70194 24.1561 7.82236C24.036 7.94278 23.873 8.01043 23.7031 8.01043C23.5332 8.01043 23.3703 7.94278 23.2501 7.82236C23.13 7.70194 23.0625 7.53862 23.0625 7.36832V6.72621C23.0625 6.55592 23.13 6.39259 23.2501 6.27217C23.3703 6.15176 23.5332 6.08411 23.7031 6.08411C23.873 6.08411 24.036 6.15176 24.1561 6.27217C24.2763 6.39259 24.3437 6.55592 24.3437 6.72621V7.36832ZM18.5781 1.9104C19.5505 1.91209 20.5023 2.19101 21.3224 2.71459C22.1426 3.23817 22.7972 3.9848 23.2098 4.86731C22.8478 4.96315 22.5216 5.16289 22.2713 5.442C21.9195 4.76491 21.3892 4.19752 20.738 3.80154C20.0868 3.40557 19.3398 3.19619 18.5781 3.19619C17.8165 3.19619 17.0694 3.40557 16.4183 3.80154C15.7671 4.19752 15.2367 4.76491 14.8849 5.442C14.635 5.16171 14.3088 4.96082 13.9464 4.8641C14.3595 3.98219 15.0143 3.23622 15.8344 2.71323C16.6545 2.19025 17.6061 1.9118 18.5781 1.9104Z" fill="#181E36"/>
<path d="M18.5781 24.0234C18.9582 24.0234 19.3298 23.9107 19.6459 23.6995C19.9619 23.4884 20.2082 23.1882 20.3537 22.837C20.4992 22.4859 20.5372 22.0994 20.4631 21.7266C20.3889 21.3538 20.2059 21.0114 19.9371 20.7426C19.6683 20.4738 19.3259 20.2908 18.9531 20.2166C18.5803 20.1425 18.1938 20.1805 17.8427 20.326C17.4915 20.4714 17.1913 20.7178 16.9801 21.0338C16.769 21.3499 16.6562 21.7215 16.6562 22.1016C16.6563 22.6113 16.8587 23.1001 17.2192 23.4605C17.5796 23.821 18.0684 24.0234 18.5781 24.0234ZM18.5781 21.4609C18.7048 21.4609 18.8287 21.4985 18.934 21.5689C19.0394 21.6393 19.1215 21.7393 19.17 21.8564C19.2185 21.9735 19.2312 22.1023 19.2064 22.2265C19.1817 22.3508 19.1207 22.465 19.0311 22.5546C18.9415 22.6441 18.8274 22.7052 18.7031 22.7299C18.5788 22.7546 18.45 22.7419 18.333 22.6934C18.2159 22.6449 18.1159 22.5628 18.0455 22.4575C17.9751 22.3521 17.9375 22.2283 17.9375 22.1016C17.9375 21.9317 18.005 21.7687 18.1251 21.6486C18.2453 21.5284 18.4082 21.4609 18.5781 21.4609Z" fill="#181E36"/>
<path d="M13.1328 32.9922H10.8906C10.7207 32.9922 10.5578 33.0597 10.4376 33.1798C10.3175 33.3 10.25 33.4629 10.25 33.6328C10.25 33.8027 10.3175 33.9657 10.4376 34.0858C10.5578 34.2059 10.7207 34.2734 10.8906 34.2734H13.1328C13.3027 34.2734 13.4657 34.2059 13.5858 34.0858C13.7059 33.9657 13.7734 33.8027 13.7734 33.6328C13.7734 33.4629 13.7059 33.3 13.5858 33.1798C13.4657 33.0597 13.3027 32.9922 13.1328 32.9922Z" fill="#181E36"/>
<path d="M29.4688 32.9922H27.2266C27.0567 32.9922 26.8937 33.0597 26.7736 33.1798C26.6534 33.3 26.5859 33.4629 26.5859 33.6328C26.5859 33.8027 26.6534 33.9657 26.7736 34.0858C26.8937 34.2059 27.0567 34.2734 27.2266 34.2734H29.4688C29.6387 34.2734 29.8016 34.2059 29.9217 34.0858C30.0419 33.9657 30.1094 33.8027 30.1094 33.6328C30.1094 33.4629 30.0419 33.3 29.9217 33.1798C29.8016 33.0597 29.6387 32.9922 29.4688 32.9922Z" fill="#181E36"/>
<path d="M39.7188 22.6964H28.0626L28.4277 16.6306C28.4557 16.2328 28.3536 15.8367 28.1368 15.5024C27.9201 15.168 27.6005 14.9136 27.2266 14.7777C27.1676 13.6678 26.7295 12.6119 25.9858 11.7875C25.2422 10.963 24.2383 10.4202 23.1426 10.25C22.8491 10.7026 22.4908 11.1094 22.0791 11.4574H22.2937C23.1926 11.4383 24.066 11.7574 24.7418 12.3518C25.4177 12.9461 25.847 13.7727 25.9453 14.6685H11.2109C11.3092 13.7727 11.7386 12.9461 12.4144 12.3518C13.0903 11.7574 13.9637 11.4383 14.8625 11.4574H15.0771C14.6656 11.1093 14.3072 10.7025 14.0137 10.25C12.918 10.4202 11.9141 10.963 11.1704 11.7875C10.4268 12.6119 9.98867 13.6678 9.92969 14.7777C9.55364 14.9115 9.23165 15.1651 9.01299 15.4997C8.79433 15.8343 8.69103 16.2315 8.71891 16.6306L9.09367 22.6964H1.28125C0.941441 22.6964 0.61555 22.8318 0.375269 23.0726C0.134988 23.3135 0 23.6402 0 23.9809L0 25.2654C0 25.606 0.134988 25.9327 0.375269 26.1736C0.61555 26.4145 0.941441 26.5498 1.28125 26.5498H2.88281V40.3578C2.88281 40.5281 2.95031 40.6915 3.07045 40.8119C3.19059 40.9323 3.35353 41 3.52344 41C3.69334 41 3.85629 40.9323 3.97643 40.8119C4.09657 40.6915 4.16406 40.5281 4.16406 40.3578V38.11H36.8359V40.3578C36.8359 40.5281 36.9034 40.6915 37.0236 40.8119C37.1437 40.9323 37.3067 41 37.4766 41C37.6465 41 37.8094 40.9323 37.9296 40.8119C38.0497 40.6915 38.1172 40.5281 38.1172 40.3578V26.5498H39.7188C40.0586 26.5498 40.3844 26.4145 40.6247 26.1736C40.865 25.9327 41 25.606 41 25.2654V23.9809C41 23.6402 40.865 23.3135 40.6247 23.0726C40.3844 22.8318 40.0586 22.6964 39.7188 22.6964ZM10.1539 16.1264C10.2077 16.0703 10.2724 16.026 10.3441 15.9962C10.4157 15.9663 10.4927 15.9516 10.5703 15.953H26.5859C26.6634 15.9514 26.7404 15.9661 26.8119 15.9962C26.8834 16.0263 26.9478 16.0711 27.0009 16.1277C27.054 16.1843 27.0947 16.2514 27.1204 16.3248C27.146 16.3981 27.156 16.476 27.1497 16.5535L26.6628 24.5814C26.6486 24.7641 26.5675 24.9351 26.435 25.0614C26.3025 25.1877 26.1281 25.2603 25.9453 25.2654H11.2109C11.0286 25.2613 10.8543 25.1899 10.7213 25.0648C10.5882 24.9398 10.506 24.7699 10.4902 24.5878L10.0034 16.5599C9.99681 16.4811 10.0068 16.4018 10.0328 16.3271C10.0587 16.2525 10.1 16.1841 10.1539 16.1264ZM1.28125 23.9809H9.17055L9.21219 24.6649C9.22567 24.8711 9.27217 25.0739 9.34992 25.2654H1.28125V23.9809ZM4.16406 30.4032H19.8594V36.8255H4.16406V30.4032ZM21.1406 36.8255V30.4032H36.8359V36.8255H21.1406ZM36.8359 29.1187H4.16406V26.5498H36.8359V29.1187ZM39.7188 25.2654H27.8095C27.8862 25.0737 27.9316 24.871 27.9441 24.6649L27.9857 23.9809H39.7188V25.2654Z" fill="#181E36"/>
</svg>
