<svg width="20" height="13" viewBox="0 0 20 13" fill="none" xmlns="http://www.w3.org/2000/svg">
<path d="M0 11.5143C0 12.335 0.665292 13.0003 1.48603 13.0003H18.3561C19.1768 13.0003 19.8421 12.335 19.8421 11.5143V8.66699H0V11.5143Z" fill="#73AF00"/>
<path d="M18.3561 0H1.48603C0.665292 0 0 0.665292 0 1.48603V4.33333H19.8421V1.48603C19.8421 0.665292 19.1768 0 18.3561 0Z" fill="#464655"/>
<path d="M19.8421 4.33301H0V8.66611H19.8421V4.33301Z" fill="#C8414B"/>
<path d="M19.8421 4.10547H0V4.78967H19.8421V4.10547Z" fill="#F5F5F5"/>
<path d="M19.8421 8.20996H0V8.89416H19.8421V8.20996Z" fill="#F5F5F5"/>
<path d="M11.7528 3.61724C12.0283 3.04922 12.3157 1.7334 12.3157 1.7334C12.3157 1.7334 11.4604 2.77375 11.1848 3.34173C11.1271 3.46079 11.1516 3.5977 11.235 3.69033L8.09717 10.1597L8.31016 10.263L11.448 3.79364C11.5724 3.80182 11.6951 3.73629 11.7528 3.61724Z" fill="#F5F5F5"/>
<path d="M8.08927 3.61724C7.81381 3.04922 7.52637 1.7334 7.52637 1.7334C7.52637 1.7334 8.38175 2.77375 8.65725 3.34173C8.71499 3.46079 8.6905 3.5977 8.6071 3.69033L11.7449 10.1597L11.532 10.263L8.39411 3.79364C8.26967 3.80182 8.14698 3.73629 8.08927 3.61724Z" fill="#F5F5F5"/>
<path d="M11.6316 6.50016C11.6316 8.38958 10.236 9.92122 9.9211 9.92122C9.60618 9.92122 8.21057 8.38958 8.21057 6.50016C8.21057 4.61074 9.60618 3.0791 9.9211 3.0791C10.236 3.0791 11.6316 4.61074 11.6316 6.50016Z" fill="#C8414B"/>
<path d="M11.2895 8.15076C11.491 7.66126 11.6316 7.09898 11.6316 6.50019C11.6316 5.9014 11.491 5.33915 11.2895 4.84961C11.088 5.33911 10.9474 5.9014 10.9474 6.50019C10.9474 7.09898 11.088 7.66122 11.2895 8.15076Z" fill="#464655"/>
<path d="M8.55269 4.84961C8.35121 5.33911 8.21057 5.9014 8.21057 6.50019C8.21057 7.09894 8.35117 7.66122 8.55269 8.15076C8.75417 7.66126 8.89481 7.09898 8.89481 6.50019C8.89481 5.9014 8.75417 5.33915 8.55269 4.84961Z" fill="#464655"/>
<path d="M9.9211 7.01359C10.11 7.01359 10.2632 6.78385 10.2632 6.50045C10.2632 6.21705 10.11 5.9873 9.9211 5.9873C9.73215 5.9873 9.57898 6.21705 9.57898 6.50045C9.57898 6.78385 9.73215 7.01359 9.9211 7.01359Z" fill="#F5F5F5"/>
<path d="M9.97241 3.0791V5.98698C10.0657 5.79282 10.2311 5.21906 10.2311 4.53304C10.2311 3.84698 10.0657 3.27326 9.97241 3.0791Z" fill="#F5F5F5"/>
<path d="M9.86981 3.0791C9.77653 3.27326 9.61108 3.84698 9.61108 4.53304C9.61108 5.2191 9.77653 5.79286 9.86981 5.98698V3.0791Z" fill="#F5F5F5"/>
<path d="M9.97241 7.01367V9.92155C10.0657 9.72739 10.2311 9.15363 10.2311 8.46761C10.2311 7.78155 10.0657 7.20783 9.97241 7.01367Z" fill="#F5F5F5"/>
<path d="M9.86981 7.01367C9.77653 7.20783 9.61108 7.78155 9.61108 8.46761C9.61108 9.15367 9.77653 9.72743 9.86981 9.92155V7.01367Z" fill="#F5F5F5"/>
</svg>
