<svg width="17" height="18" viewBox="0 0 17 18" fill="none" xmlns="http://www.w3.org/2000/svg">
<path fill-rule="evenodd" clip-rule="evenodd" d="M4.15723 0C5.32108 0 6.26414 0.943499 6.26414 2.10735C6.26414 3.27119 5.32108 4.21447 4.15723 4.21447C2.99338 4.21447 2.04988 3.27119 2.04988 2.10735C2.04988 0.943499 2.99338 0 4.15723 0ZM6.13374 13.8234H6.68781V12.035C6.68781 11.4111 7.2693 10.489 7.7595 9.80187L7.56611 9.17309C8.77151 8.80201 9.97912 8.59713 11.1876 8.56045V8.12947H11.9463V8.55956C13.1559 8.59404 14.364 8.79737 15.5692 9.17309L15.3736 9.80099C15.8638 10.4883 16.4459 11.4106 16.4459 12.035V13.8234H17V14.0183C17 14.5779 16.5423 15.0354 15.9829 15.0354H14.1021C13.5425 15.0354 13.085 14.5779 13.085 14.0183V13.8234H13.6391V12.035C13.6391 11.3887 14.2632 10.4227 14.7631 9.72916C13.823 9.4814 12.8839 9.34415 11.9463 9.31542V15.2816L12.8753 16.8371H13.7502V17.8661H9.38526V16.8371H10.2589L11.1876 15.2816V9.31631C10.2503 9.34636 9.31122 9.48494 8.37126 9.73026C8.87141 10.4238 9.49444 11.3892 9.49444 12.035V13.8234H10.0487V14.0183C10.0487 14.5779 9.59102 15.0354 9.03142 15.0354H7.15061C6.59145 15.0354 6.13374 14.5779 6.13374 14.0183V13.8234ZM14.24 13.8234H15.8452V12.035C15.8452 11.5971 15.3499 10.8099 15.0425 10.3626C14.7349 10.8099 14.24 11.5971 14.24 12.035V13.8234ZM7.28875 13.8234H8.89373V12.035C8.89373 11.5971 8.39845 10.8099 8.09124 10.3626C7.78337 10.8099 7.28875 11.5971 7.28875 12.035V13.8234ZM6.95855 4.71794C7.7416 4.9553 8.31424 5.76597 8.31424 6.62483V8.69106C7.95443 8.77947 7.60435 8.88401 7.25095 8.99297V6.62483C7.25095 6.3563 7.12144 6.10545 6.9064 5.94654L6.70616 10.3433H7.07812C6.78771 10.8134 6.42216 11.4853 6.42216 12.035V13.5575H5.86786V14.0183C5.86786 14.4712 6.10898 14.8851 6.48935 15.1161L6.45177 15.9347C6.40625 16.9297 5.69547 17.8661 4.64213 17.8661H3.67211C2.61899 17.8661 1.90711 16.9297 1.86247 15.9347L1.6567 11.4069H0V6.62483C0 5.76597 0.572862 4.9553 1.35591 4.71794L3.55895 4.49273L3.74239 5.48684L3.09549 8.19578C3.80317 8.68686 4.51107 8.64863 5.21897 8.19578L4.57185 5.48684L4.75551 4.49273L6.95855 4.71794ZM1.40807 5.94654C1.19302 6.10545 1.06351 6.3563 1.06351 6.62483V10.3433H1.60808L1.40807 5.94654Z" fill="#18244F"/>
</svg>
