<svg width="103" height="227" viewBox="0 0 103 227" fill="none" xmlns="http://www.w3.org/2000/svg">
<path fill-rule="evenodd" clip-rule="evenodd" d="M0 13.6607V0.212891C17.9954 4.62831 33.3824 12.7055 45.4935 23.357C77.2677 51.3019 85.3929 96.3024 58.4812 134.736C55.1995 139.422 47.1351 149.415 37.1657 160.398C45.1396 162.42 53.0488 165.101 60.4463 168.426C79.2896 176.894 96.483 190.329 101.111 209.347C102.49 215.014 102.696 220.905 101.648 226.999H88.361C89.6383 221.565 89.5226 216.708 88.4793 212.421C85.2877 199.305 72.7221 188.195 55.1175 180.283C46.2123 176.281 36.4433 173.302 26.8328 171.384C20.7397 177.621 14.347 183.727 8.1561 188.947C5.42739 191.248 2.69279 193.417 0 195.37V178.82C3.51149 175.848 7.0994 172.569 10.6582 169.139C7.25004 168.88 3.9465 168.774 0.80134 168.823C0.532538 168.827 0.265417 168.832 0 168.838V155.835C0.200346 155.831 0.400985 155.827 0.601904 155.824C7.35928 155.72 14.7052 156.246 22.2477 157.385C34.1997 144.7 44.3059 132.315 47.8323 127.279C70.7503 94.5492 63.9654 56.9151 36.9082 33.1188C27.2135 24.5925 14.7762 17.7586 0 13.6607Z" fill="white"/>
</svg>
