<svg width="12" height="14" viewBox="0 0 12 14" fill="none" xmlns="http://www.w3.org/2000/svg">
<path d="M9.73816 8.31264C9.70622 8.30579 9.67458 8.29865 9.6425 8.29296C9.53999 8.19789 9.45848 8.06505 9.39564 7.90626C9.23757 7.50833 9.1912 6.94256 9.19543 6.38059C9.20433 5.36878 9.38193 4.3663 9.38193 4.3663C9.38193 4.3663 9.38193 4.3663 9.38193 4.366C9.38193 4.22588 9.37858 4.09143 9.37333 3.95991C9.37158 3.91835 9.36881 3.87869 9.36677 3.83801C9.36195 3.74921 9.35685 3.66172 9.34912 3.57685C9.34518 3.53209 9.34081 3.48878 9.33658 3.44503C9.32885 3.36673 9.31952 3.29032 9.30917 3.21581C9.30377 3.17396 9.29838 3.13211 9.29211 3.09129C9.28073 3.01502 9.2679 2.94037 9.25449 2.86775C9.24763 2.83436 9.24224 2.79995 9.23568 2.7667C9.21512 2.66755 9.19324 2.57102 9.16962 2.47842C9.16816 2.47507 9.16787 2.47157 9.16671 2.46763C9.14133 2.37052 9.11436 2.27851 9.0852 2.18971C9.07586 2.16317 9.06697 2.13795 9.05778 2.11228C9.03781 2.05104 9.01535 1.99067 8.99289 1.93293C8.98181 1.90391 8.97015 1.87519 8.95848 1.84748C8.93719 1.79513 8.91372 1.7441 8.89068 1.69481C8.87843 1.66769 8.86618 1.64071 8.85335 1.61476C8.82798 1.56489 8.8026 1.51677 8.77709 1.4704C8.76484 1.44853 8.75288 1.42622 8.74093 1.40522C8.70651 1.34544 8.66948 1.28726 8.63361 1.23229C8.63025 1.22689 8.62704 1.22091 8.62281 1.21523C8.58184 1.15457 8.5397 1.09697 8.49756 1.04287C8.48502 1.02698 8.47219 1.0121 8.45906 0.997086C8.4283 0.959174 8.39782 0.922428 8.36618 0.887433C8.3497 0.87008 8.33366 0.853603 8.31748 0.835814C8.28875 0.804755 8.25915 0.775155 8.22926 0.746429C8.21278 0.730244 8.19645 0.714495 8.17997 0.699476C8.14862 0.671042 8.11756 0.644504 8.08592 0.617966C8.07061 0.605134 8.05516 0.59201 8.04014 0.580054C8.00033 0.548703 7.96008 0.51852 7.9194 0.490377C7.91313 0.485274 7.90599 0.479878 7.90001 0.475504C7.85306 0.442695 7.80523 0.412512 7.75755 0.384078C7.74384 0.376058 7.72999 0.368767 7.71657 0.361039C7.68274 0.341062 7.64848 0.322544 7.61581 0.305775C7.59788 0.296443 7.58082 0.288131 7.56347 0.279528C7.5327 0.264655 7.5031 0.250511 7.47291 0.237096C7.45498 0.229368 7.43792 0.221931 7.42028 0.21464C7.38951 0.201517 7.35962 0.190143 7.32856 0.17877C7.31295 0.172791 7.29633 0.166521 7.2816 0.160834C7.24603 0.148003 7.20986 0.136337 7.17531 0.125839C7.16568 0.122922 7.15533 0.119277 7.14629 0.116652C7.10211 0.103529 7.05938 0.0921553 7.01724 0.0816566C7.00295 0.0783029 6.99012 0.0756782 6.97656 0.0727619C6.94783 0.0662002 6.91896 0.0593468 6.8914 0.0539517C6.87522 0.0508896 6.85889 0.0476816 6.84358 0.045057C6.81908 0.0405367 6.79458 0.0364538 6.77154 0.0328084C6.75536 0.0301838 6.73961 0.0279965 6.72517 0.0262467C6.70243 0.0231846 6.67939 0.0202684 6.65708 0.0179353C6.64206 0.0164772 6.62821 0.0145816 6.6145 0.0131234C6.59117 0.011082 6.56871 0.00889476 6.5464 0.0074366C6.53474 0.00685334 6.52336 0.00539517 6.51301 0.00481191C6.48195 0.00277049 6.45352 0.00218724 6.42552 0.000874898C6.41269 0.000583268 6.40161 0.000583289 6.38878 0.000583289C6.37507 0.000583289 6.36034 0.00029161 6.34693 0.00029161C6.27854 0.00029161 6.22386 0.00291634 6.18522 0.00627009C6.17982 0.00627009 6.17632 0.00656166 6.1721 0.00714492C6.1581 0.00801982 6.14702 0.00918634 6.139 0.0100612C6.13593 0.0103529 6.13214 0.0106445 6.1301 0.0112278C6.12237 0.0115194 6.11785 0.0123943 6.11785 0.0123943C6.07804 0.00976964 6.03838 0.00816566 5.9993 0.00670751C5.96023 0.00787403 5.921 0.00976961 5.88076 0.011811C5.88076 0.011811 5.87594 0.0115194 5.86851 0.0106445C5.86588 0.0103529 5.86224 0.0100612 5.8599 0.00976962C5.85218 0.00889473 5.84022 0.00772822 5.8268 0.00670751C5.82316 0.00641588 5.81878 0.00641585 5.81368 0.00612422C5.77519 0.00262465 5.7208 0 5.65241 0C5.6387 0 5.62339 0 5.60881 0C5.59685 0 5.58665 -2.1151e-08 5.5744 0.00029161C5.54655 0.0011665 5.51666 0.00262465 5.48589 0.00422862C5.4767 0.00481188 5.4665 0.00568681 5.45687 0.0065617C5.43383 0.00801986 5.40992 0.00991542 5.38455 0.0128317C5.37142 0.0137066 5.35801 0.0154564 5.34518 0.0170604C5.32155 0.0196851 5.29793 0.0227472 5.27314 0.0259551C5.25885 0.0279966 5.24471 0.0301838 5.23013 0.0322252C5.20417 0.0361622 5.17851 0.0405367 5.15183 0.0456402C5.13783 0.0482649 5.12368 0.0504521 5.10939 0.0530768C5.07833 0.0593468 5.04786 0.0664918 5.01534 0.0733451C5.00455 0.0759698 4.9942 0.0784487 4.98253 0.0807817C4.93893 0.0909888 4.89475 0.102654 4.85042 0.116361C4.84328 0.11811 4.83613 0.120881 4.82884 0.122922C4.79181 0.134588 4.75389 0.146836 4.71584 0.160251C4.70126 0.165355 4.68653 0.171041 4.67165 0.176728C4.63972 0.188685 4.60808 0.201225 4.576 0.21464C4.55981 0.221202 4.54319 0.228347 4.5273 0.235784C4.49536 0.249199 4.46372 0.264801 4.43164 0.280257C4.41575 0.287985 4.39942 0.295568 4.38352 0.304171C4.34853 0.322398 4.31237 0.342375 4.27679 0.36308C4.26512 0.370225 4.25287 0.376204 4.24092 0.38364C4.19309 0.412366 4.14497 0.442841 4.09656 0.476233C4.09204 0.479295 4.08767 0.482795 4.08344 0.485857C4.04071 0.515749 3.99828 0.547391 3.95614 0.580929C3.94185 0.59201 3.92771 0.604259 3.91342 0.615633C3.88061 0.642754 3.84853 0.670897 3.8163 0.699914C3.80012 0.715079 3.78408 0.730389 3.76848 0.745262C3.73742 0.774571 3.70752 0.805338 3.67734 0.837272C3.66203 0.853457 3.64657 0.869789 3.63155 0.886266C3.59904 0.922137 3.56725 0.960048 3.53561 0.99869C3.52394 1.01327 3.51228 1.02654 3.50061 1.04171C3.4573 1.09639 3.41516 1.15398 3.3739 1.21508C3.37084 1.2196 3.36821 1.2247 3.3653 1.22879C3.32768 1.28493 3.2918 1.34383 3.25506 1.40537C3.24339 1.42564 3.2326 1.44751 3.22065 1.46865C3.19469 1.51619 3.16859 1.56489 3.14351 1.61534C3.13068 1.6413 3.11872 1.6674 3.10647 1.69423C3.08343 1.74439 3.06069 1.79586 3.03779 1.84894C3.02671 1.87679 3.01476 1.90449 3.00396 1.93293C2.98122 1.99155 2.9592 2.0525 2.9382 2.11491C2.92989 2.14028 2.92027 2.16419 2.91254 2.19015C2.88323 2.27953 2.85552 2.37212 2.8303 2.46895C2.82942 2.47259 2.82826 2.47697 2.82767 2.48061C2.80405 2.57291 2.7816 2.66915 2.76191 2.76831C2.75564 2.80111 2.74995 2.83523 2.74339 2.86804C2.72998 2.94066 2.71685 3.0159 2.70519 3.09245C2.69892 3.13284 2.69382 3.17469 2.68813 3.2164C2.67821 3.29105 2.66874 3.36731 2.66159 3.4462C2.65678 3.49009 2.6527 3.5334 2.64876 3.57831C2.64191 3.66259 2.63564 3.75008 2.63082 3.83859C2.62849 3.87956 2.62572 3.91923 2.62426 3.96137C2.61887 4.0926 2.61537 4.22733 2.61537 4.36717C2.61537 4.36717 2.61537 4.36717 2.61537 4.36746C2.61537 4.36746 2.79282 5.37023 2.80186 6.38176C2.80726 6.94387 2.76031 7.5092 2.60195 7.90801C2.53838 8.06665 2.45789 8.19964 2.35509 8.29383C2.32199 8.3001 2.29107 8.30696 2.26001 8.31439C2.09145 8.35347 1.54202 8.39984 0.986755 8.99171C0.649046 9.35202 0.309005 9.91355 0.0514947 10.7988C0.0284559 10.8786 0.0127078 10.9595 0.00570869 11.0414C-0.0173301 11.2858 0.0296224 11.5333 0.1419 11.7454C0.699207 12.7995 3.63039 13.1234 5.99989 13.1234C8.36939 13.1234 11.3013 12.7995 11.8585 11.7453C11.9699 11.532 12.0168 11.2848 11.9946 11.041C11.9842 10.9579 11.9687 10.8767 11.9459 10.7969C11.6887 9.91093 11.3487 9.35012 11.0113 8.99039C10.4559 8.39838 9.90584 8.35158 9.73816 8.31264ZM3.38629 4.18315C3.40117 4.17265 3.41735 4.16551 3.43441 4.16259C3.4732 4.15603 3.51388 4.17061 3.5534 4.20269C3.5534 4.20269 3.5534 4.19978 3.55427 4.1938C3.56798 4.05994 3.74616 2.55789 4.87084 2.66215L8.30887 4.43191L8.58826 4.16303C8.59744 4.16478 8.60736 4.16784 8.61582 4.17192C8.73743 4.22952 8.79036 4.51532 8.73145 4.8418C8.68697 5.09216 8.58928 5.29864 8.48589 5.38686C8.44405 5.42156 8.40132 5.43819 8.36122 5.43133C8.33847 5.42739 8.31675 5.41617 8.29823 5.39852C8.06872 6.11171 7.63069 6.82226 7.07761 7.24965C6.75463 7.49826 6.39301 7.65035 6.01024 7.65035C5.62543 7.65035 5.26148 7.49622 4.93719 7.24455C4.38702 6.81702 3.9506 6.10879 3.72254 5.39852C3.70373 5.41558 3.68346 5.42696 3.66013 5.43133C3.61347 5.43964 3.56302 5.41602 3.51549 5.36805C3.41925 5.27123 3.33088 5.07583 3.28874 4.8418C3.23362 4.5334 3.27751 4.26116 3.38629 4.18315ZM3.65314 11.888C3.6037 11.9292 3.54202 11.9518 3.47714 11.9518H3.17267C3.01986 11.9518 2.89562 11.8274 2.89562 11.6747L2.89664 11.6552C2.90685 11.5121 3.02802 11.3978 3.17282 11.3978H3.47714C3.50819 11.3978 3.53882 11.4029 3.56812 11.4133C3.5865 11.408 3.59233 11.4038 3.59233 11.4038C3.62631 11.3437 3.6263 11.0933 3.6263 10.9732C3.6263 10.7313 3.56565 10.4386 3.4592 10.1662C3.40408 10.1349 3.35961 10.0875 3.3322 10.0302C3.14745 9.64379 2.8965 9.39401 2.69236 9.39401C2.4837 9.39401 2.22021 9.66406 2.03648 10.0655C2.00644 10.131 1.9538 10.1842 1.88891 10.2158C1.79297 10.4761 1.74018 10.7438 1.74018 10.973C1.74018 11.0741 1.74018 11.342 1.77882 11.4048C1.77926 11.4048 1.78786 11.4101 1.81192 11.4159C1.84342 11.4039 1.87725 11.3977 1.91122 11.3977H2.21627C2.35713 11.3977 2.4748 11.504 2.49099 11.6423L2.49259 11.6454L2.49317 11.6636C2.49317 11.8272 2.36894 11.9516 2.21642 11.9516H1.91137C1.85086 11.9516 1.79238 11.9313 1.74427 11.8945C1.57016 11.8618 1.44724 11.7849 1.36937 11.6598C1.27532 11.5085 1.25812 11.3099 1.25812 10.973C1.25812 10.6775 1.32636 10.3374 1.4503 10.0124C1.43207 9.94286 1.4382 9.8701 1.46838 9.80477C1.59758 9.52247 1.76176 9.28071 1.94316 9.10588C2.0429 9.00964 2.14992 8.9325 2.2622 8.87607C2.30318 8.78013 2.37288 8.69964 2.45891 8.64816C2.50411 8.39357 2.64672 8.12396 2.85465 7.90319C3.14103 7.59873 3.50076 7.43134 3.86748 7.43134H3.94039V7.43279C4.06725 7.43994 4.16845 7.5442 4.16845 7.67281C4.16845 7.80141 4.06725 7.90582 3.94039 7.91282V7.91369H3.9312C3.9296 7.91369 3.92829 7.91428 3.92698 7.91428C3.92566 7.91428 3.92406 7.91369 3.92275 7.91369H3.86748C3.41589 7.91369 3.04173 8.34181 2.94724 8.67383C3.01198 8.72195 3.06462 8.78713 3.09918 8.86324C3.41064 9.01008 3.6858 9.3195 3.8965 9.76001C3.93179 9.83423 3.93631 9.91792 3.9105 9.99433C4.03678 10.3195 4.10895 10.6746 4.10895 10.9729C4.10881 11.3912 4.10881 11.7865 3.65314 11.888ZM5.99814 10.4784C5.99814 10.4784 4.18799 8.76657 3.89183 8.38803C3.82943 8.3071 3.7902 8.22224 3.77956 8.13373V8.13344C3.79414 8.12804 3.82768 8.11638 3.87273 8.09582C3.89096 8.08809 3.91152 8.07788 3.93164 8.06651C4.11085 7.97275 4.3739 7.77692 4.3739 7.43192C4.3739 7.43192 4.3739 7.43192 4.37419 7.43192C4.65649 7.7113 4.97116 7.93367 5.30668 8.06651C5.53226 8.15618 5.76775 8.20576 6.00951 8.20576C6.25156 8.20576 6.48677 8.15618 6.71234 8.06651C7.04495 7.93498 7.35568 7.71626 7.6371 7.43965C7.63914 7.44081 7.64104 7.44169 7.64308 7.44271C7.64964 7.88672 8.09584 8.08153 8.21643 8.12644C8.21672 8.1279 8.21643 8.13037 8.21584 8.13358C8.20564 8.22165 8.16598 8.30696 8.10342 8.38788C7.80771 8.76598 5.99814 10.4784 5.99814 10.4784ZM9.06172 11.7928C9.06172 11.8431 9.01608 11.884 8.95979 11.884H8.40555V12.4379C8.40555 12.4943 8.36472 12.5401 8.31456 12.5401H7.76761C7.7173 12.5401 7.67662 12.4943 7.67662 12.4379V11.884H7.12237C7.06609 11.884 7.0203 11.8431 7.0203 11.7928V11.246C7.0203 11.1956 7.06609 11.1549 7.12237 11.1549H7.67662V10.6006C7.67662 10.5442 7.7173 10.4987 7.76761 10.4987H8.31456C8.36472 10.4987 8.40555 10.5443 8.40555 10.6006V11.1549H8.95979C9.01622 11.1549 9.06172 11.1956 9.06172 11.246V11.7928ZM9.73466 9.84225C9.59336 10.106 9.31967 10.2699 9.0206 10.2699C9.0206 10.2699 9.0206 10.2699 9.02045 10.2699C8.88849 10.2699 8.75653 10.2367 8.63944 10.1741C8.44886 10.0722 8.30946 9.90218 8.2469 9.69541C8.1842 9.4885 8.20593 9.26963 8.30785 9.0792C8.4089 8.89022 8.58155 8.75097 8.78817 8.68929C8.71643 8.40801 8.52366 8.07117 8.18493 7.95992L8.10371 7.93323C8.097 7.9309 8.09 7.92944 8.08359 7.92667L8.05763 7.91807L8.05924 7.91326C7.98648 7.87126 7.93675 7.7934 7.93675 7.70343C7.93675 7.56928 8.04553 7.4605 8.17968 7.4605C8.18901 7.4605 8.19791 7.46225 8.2071 7.46341L8.20841 7.45977L8.22547 7.46531C8.24515 7.46896 8.26367 7.47537 8.28117 7.48354L8.3357 7.50133C8.68435 7.61608 8.97365 7.88745 9.15067 8.26598C9.21585 8.4048 9.26105 8.54959 9.28525 8.69658C9.32725 8.71087 9.36618 8.72763 9.40307 8.74732C9.79604 8.95773 9.94492 9.44884 9.73466 9.84225Z" fill="#18244F"/>
<path d="M9.02143 9.89833C9.26303 9.89833 9.45888 9.70248 9.45888 9.46088C9.45888 9.21929 9.26303 9.02344 9.02143 9.02344C8.77984 9.02344 8.58398 9.21929 8.58398 9.46088C8.58398 9.70248 8.77984 9.89833 9.02143 9.89833Z" fill="#18244F"/>
</svg>
