<svg width="37" height="50" viewBox="0 0 37 50" fill="none" xmlns="http://www.w3.org/2000/svg">
<path d="M36.6989 10.5789L26.4211 0.301107C26.2284 0.108398 25.9674 0 25.6944 0H4.11105C1.84374 0 0 1.84374 0 4.11114V45.2223C0 47.4896 1.84374 49.3333 4.11114 49.3333H32.889C35.1563 49.3333 37 47.4896 37 45.2222V11.3055C37 11.0326 36.8916 10.7716 36.6989 10.5789ZM26.7222 3.50893L33.4911 10.2778H28.7777C27.6446 10.2778 26.7222 9.35541 26.7222 8.22229V3.50893ZM34.9445 45.2222C34.9445 46.3553 34.0221 47.2777 32.889 47.2777H4.11114C2.97802 47.2777 2.05562 46.3553 2.05562 45.2222V4.11114C2.05562 2.97802 2.97802 2.05562 4.11114 2.05562H24.6667V8.22229C24.6667 10.4896 26.5104 12.3333 28.7778 12.3333H34.9445V45.2222Z" fill="#8787C7"/>
<path d="M23.7405 30.1718C22.789 29.4231 21.8848 28.6533 21.2826 28.0511C20.4997 27.2682 19.8021 26.5094 19.1959 25.7867C20.1414 22.865 20.5559 21.3585 20.5559 20.5555C20.5559 17.144 19.3234 16.4443 17.4726 16.4443C16.0664 16.4443 14.3893 17.175 14.3893 20.6539C14.3893 22.1875 15.2294 24.0494 16.8945 26.2133C16.487 27.4568 16.0082 28.8912 15.4703 30.5081C15.2113 31.2839 14.9303 32.0025 14.6332 32.667C14.3913 32.7744 14.1564 32.8838 13.9296 32.9972C13.1126 33.4058 12.3367 33.7731 11.6171 34.1143C8.33496 35.6681 6.16699 36.6959 6.16699 38.7253C6.16699 40.1987 7.76792 41.111 9.25033 41.111C11.1613 41.111 14.0469 38.5586 16.1547 34.2588C18.3427 33.3956 21.0628 32.7562 23.2096 32.3558C24.9299 33.6786 26.83 34.9443 27.7503 34.9443C30.2987 34.9443 30.8337 33.4709 30.8337 32.2353C30.8337 29.8054 28.0574 29.8054 26.7225 29.8054C26.308 29.8055 25.196 29.9279 23.7405 30.1718ZM9.25033 39.0555C8.66314 39.0555 8.26568 38.7785 8.22251 38.7253C8.22251 37.9965 10.3955 36.9668 12.4973 35.9712C12.6307 35.908 12.7663 35.8447 12.9038 35.7794C11.3601 38.0177 9.83346 39.0555 9.25033 39.0555ZM16.4448 20.6539C16.4448 18.5 17.1133 18.5 17.4726 18.5C18.1993 18.5 18.5004 18.5 18.5004 20.5555C18.5004 20.9891 18.2114 22.0731 17.6824 23.7653C16.8753 22.5227 16.4448 21.4578 16.4448 20.6539ZM17.2327 31.7005C17.297 31.5218 17.3592 31.3412 17.4194 31.1585C17.8008 30.0143 18.1441 28.9865 18.4502 28.0611C18.8768 28.5308 19.3365 29.0116 19.8293 29.5044C20.022 29.6971 20.4998 30.1307 21.1362 30.6736C19.8693 30.9497 18.5214 31.2919 17.2327 31.7005ZM28.7781 32.2354C28.7781 32.6972 28.7781 32.8888 27.8246 32.8949C27.5446 32.8347 26.8972 32.4533 26.0982 31.9093C26.3883 31.8772 26.6021 31.8611 26.7225 31.8611C28.2412 31.8611 28.6718 32.0096 28.7781 32.2354Z" fill="#8787C7"/>
</svg>
