<svg width="14" height="17" viewBox="0 0 14 17" fill="none" xmlns="http://www.w3.org/2000/svg">
<path d="M6.64979 3.224L7.971 1.89955L8.04163 1.82875L7.97083 1.75813L7.13985 0.929202L7.06905 0.85858L6.99843 0.929376L4.09376 3.84116L4.02381 3.91129L4.09327 3.98191L6.96002 6.8966L7.03015 6.96789L7.10144 6.89777L7.93825 6.07473L8.00954 6.00461L7.93942 5.93332L6.62576 4.5977H7.338C10.1304 4.5977 12.4023 6.8696 12.4023 9.662C12.4023 12.4544 10.1304 14.7263 7.338 14.7263C4.54563 14.7263 2.27369 12.4544 2.27369 9.66188V9.07504V8.97503L2.17368 8.97504L0.99999 8.97516L0.9 8.97517V9.07516V9.662C0.9 11.3815 1.5698 12.9985 2.78566 14.2143C4.00148 15.4302 5.61856 16.1 7.338 16.1C9.05744 16.1 10.6745 15.4302 11.8903 14.2143C13.1062 12.9985 13.776 11.3814 13.776 9.662C13.776 7.94256 13.1062 6.32548 11.8903 5.10963C10.6745 3.89381 9.05744 3.224 7.338 3.224H6.64979Z" fill="white" stroke="white" stroke-width="0.2"/>
</svg>
