<svg width="153" height="172" viewBox="0 0 153 172" fill="none" xmlns="http://www.w3.org/2000/svg">
<path fill-rule="evenodd" clip-rule="evenodd" d="M138.957 0C138.471 0.78741 137.819 1.65735 136.957 2.61628C133.584 6.36905 127.871 10.3754 120.25 14.0822C117.209 15.5614 113.935 16.9591 110.484 18.251C112.396 13.2468 114.412 8.37735 116.496 3.86605C117.112 2.53497 117.728 1.24483 118.345 0H103.971C100.728 7.18865 97.6667 15.1195 94.8999 23.0414C85.0478 25.4639 74.5762 26.9582 64.4671 27.1101C44.5618 27.4092 27.906 22.5211 19.1449 11.5996C16.6491 8.48842 14.6291 4.66753 13.3662 0H0C1.50296 7.61872 4.55356 14.1858 9.00441 19.7342C21.5661 35.3935 43.3992 40.4282 64.6624 40.1086C73.1146 39.9816 81.769 39.0107 90.1845 37.3823C85.6237 52.1064 82.4212 65.0877 81.3976 70.9285C73.0702 118.442 100.228 156.806 141.99 168.996C145.431 170 148.962 170.826 152.573 171.466V158.23C150.206 157.748 147.891 157.176 145.632 156.516C109.901 146.087 87.077 113.828 94.2024 73.1727C95.2996 66.9122 99.3429 50.8832 104.983 33.7802C112.547 31.5494 119.657 28.8271 125.937 25.7726C134.336 21.6869 141.692 16.7945 146.625 11.3069C149.286 8.34722 151.509 4.87488 152.573 1.07682V0H138.957Z" fill="white"/>
</svg>
