<svg width="20" height="20" viewBox="0 0 24 24" fill="none" xmlns="http://www.w3.org/2000/svg">
<path d="M19.2016 14.4155C18.4928 14.4202 17.7939 14.5816 17.155 14.8882C16.5162 15.1948 15.9533 15.6389 15.5068 16.1886L9.38875 13.3732C9.6764 12.4935 9.6764 11.5452 9.38875 10.6656L15.5068 7.85011C16.2285 8.71987 17.2346 9.30705 18.3476 9.50804C19.4606 9.70903 20.6089 9.5109 21.5899 8.94862C22.5709 8.38634 23.3215 7.49606 23.7091 6.43489C24.0968 5.37373 24.0967 4.2099 23.7089 3.14881C23.321 2.08771 22.5702 1.19756 21.5892 0.635463C20.6081 0.0733627 19.4597 -0.124557 18.3468 0.0766338C17.2338 0.277825 16.2277 0.865193 15.5062 1.73508C14.7847 2.60496 14.394 3.70144 14.4031 4.831C14.4067 5.11641 14.4348 5.401 14.4871 5.68162L8.15315 8.59291C7.47786 7.93347 6.62274 7.48772 5.69491 7.3115C4.76709 7.13528 3.80782 7.23643 2.9373 7.60227C2.06678 7.96812 1.32372 8.58239 0.801217 9.36813C0.278712 10.1539 0 11.0761 0 12.0194C0 12.9626 0.278712 13.8849 0.801217 14.6706C1.32372 15.4564 2.06678 16.0706 2.9373 16.4365C3.80782 16.8023 4.76709 16.9035 5.69491 16.7272C6.62274 16.551 7.47786 16.1053 8.15315 15.4458L14.4871 18.3571C14.4348 18.6377 14.4067 18.9223 14.4031 19.2077C14.4031 20.1556 14.6845 21.0821 15.2118 21.8702C15.7391 22.6583 16.4885 23.2725 17.3653 23.6352C18.2421 23.9979 19.2069 24.0928 20.1377 23.9079C21.0685 23.723 21.9235 23.2666 22.5946 22.5964C23.2656 21.9262 23.7226 21.0723 23.9078 20.1427C24.0929 19.2131 23.9979 18.2495 23.6347 17.3738C23.2716 16.4982 22.6565 15.7497 21.8674 15.2231C21.0783 14.6966 20.1506 14.4155 19.2016 14.4155ZM19.2016 2.43487C19.6761 2.43487 20.1399 2.5754 20.5345 2.83869C20.929 3.10198 21.2366 3.4762 21.4181 3.91404C21.5997 4.35187 21.6473 4.83365 21.5547 5.29846C21.4621 5.76326 21.2336 6.19021 20.8981 6.52531C20.5625 6.86042 20.135 7.08863 19.6696 7.18108C19.2042 7.27354 18.7218 7.22608 18.2834 7.04473C17.845 6.86337 17.4703 6.55625 17.2067 6.16221C16.943 5.76817 16.8023 5.30491 16.8023 4.831C16.8023 4.1955 17.0551 3.58604 17.5051 3.13668C17.955 2.68732 18.5652 2.43487 19.2016 2.43487ZM4.80624 14.4155C4.33171 14.4155 3.86785 14.275 3.4733 14.0117C3.07875 13.7484 2.77124 13.3742 2.58964 12.9363C2.40805 12.4985 2.36054 12.0167 2.45312 11.5519C2.54569 11.0871 2.77419 10.6602 3.10973 10.3251C3.44527 9.98995 3.87277 9.76174 4.33817 9.66929C4.80357 9.57683 5.28598 9.62428 5.72438 9.80564C6.16278 9.987 6.53748 10.2941 6.80111 10.6882C7.06474 11.0822 7.20546 11.5455 7.20546 12.0194C7.20546 12.6549 6.95268 13.2643 6.50274 13.7137C6.0528 14.163 5.44255 14.4155 4.80624 14.4155ZM19.2016 21.6039C18.727 21.6039 18.2632 21.4633 17.8686 21.2001C17.4741 20.9368 17.1666 20.5625 16.985 20.1247C16.8034 19.6869 16.7559 19.2051 16.8484 18.7403C16.941 18.2755 17.1695 17.8485 17.5051 17.5134C17.8406 17.1783 18.2681 16.9501 18.7335 16.8577C19.1989 16.7652 19.6813 16.8127 20.1197 16.994C20.5581 17.1754 20.9328 17.4825 21.1964 17.8765C21.4601 18.2706 21.6008 18.7338 21.6008 19.2077C21.6008 19.8432 21.348 20.4527 20.8981 20.9021C20.4481 21.3514 19.8379 21.6039 19.2016 21.6039Z" fill="#18244F"/>
</svg>
